<svg width="559.332" height="538.444" viewBox="0 0 147.99 142.463" xml:space="preserve" xmlns="http://www.w3.org/2000/svg"><path style="fill:#000;fill-opacity:1;fill-rule:evenodd;stroke:none;stroke-width:.718;stroke-linecap:square;stroke-linejoin:round;stroke-dasharray:none;stroke-opacity:1;stop-color:#000" d="M0 31.653h147.99v110.811H0z"/><path style="fill:red;fill-opacity:1;fill-rule:evenodd;stroke:none;stroke-width:.55634;stroke-linecap:square;stroke-linejoin:round;stroke-dasharray:none;stroke-opacity:1;stop-color:#000" d="M0 0h147.99v31.653H0z"/><path d="m73.898 122.463 38.048-18.54 72.847 26.64-38.261 18.808-72.634-26.908" style="fill:#55c5ae;fill-opacity:1;fill-rule:nonzero;stroke:none;stroke-width:.0352778" transform="translate(-41.675 -33.604)"/><path d="m76.139 122.352 70.344 26.06 36.068-17.73-70.556-25.802-35.856 17.472m70.393 27.9a.879.879 0 0 1-.307-.054L73.592 123.29a.882.882 0 0 1-.08-1.62l38.048-18.54a.882.882 0 0 1 .69-.036l72.846 26.64a.881.881 0 0 1 .086 1.62l-38.261 18.808a.883.883 0 0 1-.39.09" style="fill:#171717;fill-opacity:1;fill-rule:nonzero;stroke:none;stroke-width:.0352778" transform="translate(-41.675 -33.604)"/><path d="m73.898 122.463 72.634 26.908v23.265l-72.634-27.595v-22.578" style="fill:#45c0a8;fill-opacity:1;fill-rule:nonzero;stroke:none;stroke-width:.0352778" transform="translate(-41.675 -33.604)"/><path d="m74.78 144.432 70.87 26.926v-21.373L74.78 123.73v20.702m71.752 29.086a.88.88 0 0 1-.313-.057l-72.634-27.596a.882.882 0 0 1-.569-.824v-22.578a.881.881 0 0 1 1.189-.827l72.633 26.908a.882.882 0 0 1 .576.827v23.265a.882.882 0 0 1-.882.882" style="fill:#171717;fill-opacity:1;fill-rule:nonzero;stroke:none;stroke-width:.0352778" transform="translate(-41.675 -33.604)"/><path d="M146.532 172.636v-23.265l38.26-18.809v22.005l-38.26 20.07" style="fill:#339881;fill-opacity:1;fill-rule:nonzero;stroke:none;stroke-width:.0352778" transform="translate(-41.675 -33.604)"/><path d="M147.414 149.92v21.257l36.497-19.143v-20.056l-36.497 17.942m-.882 23.598a.883.883 0 0 1-.882-.882v-23.265c0-.337.191-.644.493-.792l38.261-18.808a.881.881 0 0 1 1.27.791v22.005a.881.881 0 0 1-.472.781l-38.26 20.07a.88.88 0 0 1-.41.1" style="fill:#171717;fill-opacity:1;fill-rule:nonzero;stroke:none;stroke-width:.0352778" transform="translate(-41.675 -33.604)"/><path d="M104.6 106.514v7.055c0 1.992 4.667 3.606 10.425 3.606 5.759 0 10.427-1.614 10.427-3.606v-7.055h-20.853" style="fill:#45c0a8;fill-opacity:1;fill-rule:nonzero;stroke:none;stroke-width:.0352778" transform="translate(-41.675 -33.604)"/><path d="M105.48 107.396v6.173c0 .925 3.37 2.724 9.545 2.724 6.176 0 9.545-1.8 9.545-2.724v-6.173h-19.09m9.545 10.661c-5.62 0-11.308-1.541-11.308-4.488v-7.055c0-.488.395-.882.882-.882h20.853c.487 0 .882.394.882.882v7.055c0 2.947-5.69 4.488-11.309 4.488" style="fill:#171717;fill-opacity:1;fill-rule:nonzero;stroke:none;stroke-width:.0352778" transform="translate(-41.675 -33.604)"/><path d="M125.452 106.514c0 1.991-4.668 3.606-10.427 3.606-5.758 0-10.426-1.615-10.426-3.606 0-1.992 4.668-3.607 10.426-3.607 5.759 0 10.427 1.615 10.427 3.607" style="fill:#45c0a8;fill-opacity:1;fill-rule:nonzero;stroke:none;stroke-width:.0352778" transform="translate(-41.675 -33.604)"/><path d="M115.025 103.79c-6.175 0-9.544 1.799-9.544 2.724 0 .924 3.369 2.724 9.544 2.724 6.176 0 9.545-1.8 9.545-2.724 0-.925-3.369-2.725-9.545-2.725m0 7.213c-5.62 0-11.308-1.542-11.308-4.488 0-2.947 5.689-4.489 11.308-4.489 5.62 0 11.309 1.542 11.309 4.489 0 2.946-5.69 4.488-11.309 4.488" style="fill:#171717;fill-opacity:1;fill-rule:nonzero;stroke:none;stroke-width:.0352778" transform="translate(-41.675 -33.604)"/><path d="M87.166 114.458v7.056c0 1.991 4.669 3.606 10.427 3.606s10.426-1.615 10.426-3.606v-7.056H87.166" style="fill:#45c0a8;fill-opacity:1;fill-rule:nonzero;stroke:none;stroke-width:.0352778" transform="translate(-41.675 -33.604)"/><path d="M88.048 115.34v6.174c0 .924 3.37 2.724 9.545 2.724s9.544-1.8 9.544-2.724v-6.174H88.048m9.545 10.662c-5.62 0-11.309-1.542-11.309-4.488v-7.056c0-.487.395-.882.882-.882h20.853c.487 0 .882.395.882.882v7.056c0 2.946-5.689 4.488-11.308 4.488" style="fill:#171717;fill-opacity:1;fill-rule:nonzero;stroke:none;stroke-width:.0352778" transform="translate(-41.675 -33.604)"/><path d="M108.02 114.458c0 1.992-4.669 3.606-10.427 3.606-5.759 0-10.427-1.614-10.427-3.606 0-1.992 4.668-3.606 10.427-3.606 5.758 0 10.426 1.614 10.426 3.606" style="fill:#45c0a8;fill-opacity:1;fill-rule:nonzero;stroke:none;stroke-width:.0352778" transform="translate(-41.675 -33.604)"/><path d="M97.593 111.734c-6.176 0-9.545 1.8-9.545 2.724 0 .925 3.37 2.724 9.545 2.724s9.544-1.8 9.544-2.724c0-.925-3.369-2.724-9.544-2.724m0 7.212c-5.62 0-11.309-1.541-11.309-4.488 0-2.946 5.69-4.488 11.309-4.488 5.62 0 11.308 1.542 11.308 4.488 0 2.947-5.689 4.488-11.308 4.488" style="fill:#171717;fill-opacity:1;fill-rule:nonzero;stroke:none;stroke-width:.0352778" transform="translate(-41.675 -33.604)"/><path d="M127.96 114.963v7.056c0 1.991 4.669 3.606 10.427 3.606 5.759 0 10.427-1.615 10.427-3.607v-7.055H127.96" style="fill:#45c0a8;fill-opacity:1;fill-rule:nonzero;stroke:none;stroke-width:.0352778" transform="translate(-41.675 -33.604)"/><path d="M128.843 115.845v6.174c0 .924 3.368 2.724 9.544 2.724s9.545-1.8 9.545-2.724v-6.174h-19.09m9.545 10.662c-5.62 0-11.308-1.542-11.308-4.489v-7.055c0-.487.395-.882.882-.882h20.853c.487 0 .882.395.882.882v7.056c0 2.946-5.69 4.488-11.309 4.488" style="fill:#171717;fill-opacity:1;fill-rule:nonzero;stroke:none;stroke-width:.0352778" transform="translate(-41.675 -33.604)"/><path d="M148.814 114.963c0 1.992-4.668 3.606-10.427 3.606-5.758 0-10.426-1.614-10.426-3.606 0-1.991 4.668-3.606 10.426-3.606 5.759 0 10.427 1.615 10.427 3.606" style="fill:#45c0a8;fill-opacity:1;fill-rule:nonzero;stroke:none;stroke-width:.0352778" transform="translate(-41.675 -33.604)"/><path d="M138.387 112.239c-6.176 0-9.544 1.8-9.544 2.724 0 .925 3.368 2.724 9.544 2.724s9.545-1.8 9.545-2.724c0-.925-3.37-2.724-9.545-2.724m0 7.212c-5.62 0-11.308-1.541-11.308-4.488 0-2.946 5.689-4.488 11.308-4.488 5.62 0 11.309 1.542 11.309 4.488 0 2.947-5.69 4.488-11.309 4.488" style="fill:#171717;fill-opacity:1;fill-rule:nonzero;stroke:none;stroke-width:.0352778" transform="translate(-41.675 -33.604)"/><path d="M110.528 122.908v7.055c0 1.992 4.668 3.606 10.427 3.606 5.758 0 10.426-1.614 10.426-3.606v-7.055h-20.853" style="fill:#45c0a8;fill-opacity:1;fill-rule:nonzero;stroke:none;stroke-width:.0352778" transform="translate(-41.675 -33.604)"/><path d="M111.41 123.79v6.173c0 .925 3.369 2.724 9.545 2.724 6.175 0 9.544-1.799 9.544-2.724v-6.173zm9.545 10.661c-5.62 0-11.309-1.542-11.309-4.488v-7.055c0-.487.395-.882.882-.882h20.853c.487 0 .882.395.882.882v7.055c0 2.946-5.689 4.488-11.308 4.488" style="fill:#171717;fill-opacity:1;fill-rule:nonzero;stroke:none;stroke-width:.0352778" transform="translate(-41.675 -33.604)"/><path d="M131.381 122.908c0 1.991-4.668 3.606-10.426 3.606-5.759 0-10.427-1.615-10.427-3.606 0-1.992 4.668-3.607 10.427-3.607 5.758 0 10.426 1.615 10.426 3.607" style="fill:#45c0a8;fill-opacity:1;fill-rule:nonzero;stroke:none;stroke-width:.0352778" transform="translate(-41.675 -33.604)"/><path d="M120.955 120.183c-6.176 0-9.545 1.8-9.545 2.725 0 .924 3.369 2.724 9.545 2.724 6.175 0 9.544-1.8 9.544-2.724 0-.925-3.369-2.725-9.544-2.725m0 7.213c-5.62 0-11.309-1.542-11.309-4.488 0-2.947 5.69-4.489 11.309-4.489 5.62 0 11.308 1.542 11.308 4.489 0 2.946-5.689 4.488-11.308 4.488" style="fill:#171717;fill-opacity:1;fill-rule:nonzero;stroke:none;stroke-width:.0352778" transform="translate(-41.675 -33.604)"/><path d="m51.852 91.89 36.195-17.638 69.298 25.343-36.397 17.892L51.852 91.89" style="fill:#f9b041;fill-opacity:1;fill-rule:nonzero;stroke:none;stroke-width:.0352778" transform="translate(-41.675 -33.604)"/><path d="m54.093 91.78 66.806 24.748 34.205-16.814-67.008-24.505-34.003 16.57m66.855 26.59a.88.88 0 0 1-.306-.055L51.546 92.717a.883.883 0 0 1-.08-1.62L87.66 73.46a.883.883 0 0 1 .69-.036l69.298 25.342a.882.882 0 0 1 .087 1.62l-36.398 17.892a.877.877 0 0 1-.389.091" style="fill:#171717;fill-opacity:1;fill-rule:nonzero;stroke:none;stroke-width:.0352778" transform="translate(-41.675 -33.604)"/><path d="m51.852 92.011 69.096 25.597v22.133l-68.75-25.423-.346-22.307" style="fill:#f9a82b;fill-opacity:1;fill-rule:nonzero;stroke:none;stroke-width:.0352778" transform="translate(-41.675 -33.604)"/><path d="m53.071 113.7 66.995 24.774v-20.252L52.754 93.286l.317 20.414m67.877 26.923a.875.875 0 0 1-.306-.055l-68.75-25.423a.881.881 0 0 1-.575-.814l-.346-22.306a.88.88 0 0 1 1.188-.84l69.095 25.596a.883.883 0 0 1 .576.827v22.133a.882.882 0 0 1-.882.882" style="fill:#171717;fill-opacity:1;fill-rule:nonzero;stroke:none;stroke-width:.0352778" transform="translate(-41.675 -33.604)"/><path d="M120.948 139.74v-22.253l36.397-17.892v20.933l-36.397 19.213" style="fill:#ce7a1b;fill-opacity:1;fill-rule:nonzero;stroke:none;stroke-width:.0352778" transform="translate(-41.675 -33.604)"/><path d="M121.83 118.036v20.242l34.634-18.282v-18.985l-34.634 17.025m-.882 22.587a.881.881 0 0 1-.882-.882v-22.254c0-.336.192-.643.493-.792l36.398-17.892a.882.882 0 0 1 1.27.792v20.933c0 .326-.18.627-.47.78L121.36 140.52a.879.879 0 0 1-.412.103" style="fill:#171717;fill-opacity:1;fill-rule:nonzero;stroke:none;stroke-width:.0352778" transform="translate(-41.675 -33.604)"/><path d="M81.058 76.717v6.712c0 1.895 4.44 3.43 9.918 3.43 5.478 0 9.919-1.535 9.919-3.43v-6.712H81.058" style="fill:#f9a82b;fill-opacity:1;fill-rule:nonzero;stroke:none;stroke-width:.0352778" transform="translate(-41.675 -33.604)"/><path d="M81.94 77.6v5.83c0 .864 3.189 2.548 9.036 2.548 5.848 0 9.037-1.684 9.037-2.549V77.6H81.939m9.037 10.143c-5.367 0-10.8-1.482-10.8-4.313v-6.712c0-.487.394-.882.882-.882h19.837c.487 0 .882.395.882.882v6.712c0 2.831-5.433 4.313-10.8 4.313" style="fill:#171717;fill-opacity:1;fill-rule:nonzero;stroke:none;stroke-width:.0352778" transform="translate(-41.675 -33.604)"/><path d="m90.976 85.978-.282-.002v-5.828l3.432-.189 2.922-.674-2.187.844-2.051.19v5.6c-.579.038-1.19.059-1.834.059M97.932 84.94v-5.86l1.332-.306V84.3c-.334.215-.78.434-1.332.64M97.048 79.285l.884-.341v.137l-.884.204" style="fill:#d28924;fill-opacity:1;fill-rule:nonzero;stroke:none;stroke-width:.0352778" transform="translate(-41.675 -33.604)"/><path d="M92.81 85.92v-5.602l2.051-.189 2.187-.844.884-.204v5.859c-1.209.45-2.93.838-5.122.98" style="fill:#b26f20;fill-opacity:1;fill-rule:nonzero;stroke:none;stroke-width:.0352778" transform="translate(-41.675 -33.604)"/><path d="M89.14 85.92c-1.56-.102-2.88-.327-3.946-.61v-1.035a.882.882 0 0 0-.882-.882h-.651v-4.279l5.479.89v5.915" style="fill:#f8c361;fill-opacity:1;fill-rule:nonzero;stroke:none;stroke-width:.0352778" transform="translate(-41.675 -33.604)"/><path d="M81.94 77.6v5.83c0 .864 3.189 2.548 9.036 2.548 5.848 0 9.037-1.684 9.037-2.549V77.6H81.939m9.037 10.143c-5.367 0-10.8-1.482-10.8-4.313v-6.712c0-.487.394-.882.882-.882h19.837c.487 0 .882.395.882.882v6.712c0 2.831-5.433 4.313-10.8 4.313" style="fill:#171717;fill-opacity:1;fill-rule:nonzero;stroke:none;stroke-width:.0352778" transform="translate(-41.675 -33.604)"/><path d="M100.895 76.717c0 1.895-4.44 3.43-9.919 3.43-5.478 0-9.918-1.535-9.918-3.43 0-1.895 4.44-3.43 9.918-3.43 5.478 0 9.919 1.535 9.919 3.43" style="fill:#f9a82b;fill-opacity:1;fill-rule:nonzero;stroke:none;stroke-width:.0352778" transform="translate(-41.675 -33.604)"/><path d="M90.976 74.168c-5.847 0-9.037 1.684-9.037 2.55 0 .864 3.19 2.548 9.037 2.548 5.848 0 9.037-1.684 9.037-2.549s-3.19-2.549-9.037-2.549zm0 6.862c-5.367 0-10.8-1.482-10.8-4.313 0-2.831 5.433-4.312 10.8-4.312 5.368 0 10.8 1.48 10.8 4.312 0 2.831-5.432 4.313-10.8 4.313" style="fill:#171717;fill-opacity:1;fill-rule:nonzero;stroke:none;stroke-width:.0352778" transform="translate(-41.675 -33.604)"/><path d="M64.474 84.275v6.712c0 1.895 4.44 3.43 9.919 3.43 5.478 0 9.919-1.535 9.919-3.43v-6.712H64.474" style="fill:#f9a82b;fill-opacity:1;fill-rule:nonzero;stroke:none;stroke-width:.0352778" transform="translate(-41.675 -33.604)"/><path d="M65.356 85.157v5.83c0 .865 3.19 2.549 9.037 2.549 5.847 0 9.037-1.684 9.037-2.55v-5.83H65.356M74.393 95.3c-5.368 0-10.801-1.481-10.801-4.312v-6.712c0-.487.395-.882.882-.882h19.838c.486 0 .882.395.882.882v6.712c0 2.83-5.434 4.312-10.801 4.312" style="fill:#171717;fill-opacity:1;fill-rule:nonzero;stroke:none;stroke-width:.0352778" transform="translate(-41.675 -33.604)"/><path d="M74.393 93.536c-.121 0-.24-.002-.359-.003v-5.78l3.433-.19 2.922-.674-2.187.845-2.05.188v5.56c-.557.035-1.144.054-1.76.054m6.88-1.01v-5.84l1.334-.308v5.527a7.45 7.45 0 0 1-1.333.62" style="fill:#d28924;fill-opacity:1;fill-rule:nonzero;stroke:none;stroke-width:.0352778" transform="translate(-41.675 -33.604)"/><path d="M74.034 94.464v-.93l.359.002c.615 0 1.202-.02 1.758-.054v.642l-2.117.34m6.837-1.096.402-.108v-.734a7.45 7.45 0 0 0 1.333-.621v1.185l-1.735.278" style="fill:#141312;fill-opacity:1;fill-rule:nonzero;stroke:none;stroke-width:.0352778" transform="translate(-41.675 -33.604)"/><path d="m80.389 86.89.884-.342v.137l-.884.204" style="fill:#d28924;fill-opacity:1;fill-rule:nonzero;stroke:none;stroke-width:.0352778" transform="translate(-41.675 -33.604)"/><path d="M76.151 94.634v-.51l4.72-.756-4.72 1.266" style="fill:#141312;fill-opacity:1;fill-rule:nonzero;stroke:none;stroke-width:.0352778" transform="translate(-41.675 -33.604)"/><path d="M76.151 93.482v-5.56l2.051-.188 2.187-.845.884-.204v5.84c-1.218.444-2.938.822-5.122.957" style="fill:#b26f20;fill-opacity:1;fill-rule:nonzero;stroke:none;stroke-width:.0352778" transform="translate(-41.675 -33.604)"/><path d="M76.151 94.124v-.642c2.184-.135 3.904-.513 5.122-.956v.734l-.402.108-4.72.756" style="fill:#121110;fill-opacity:1;fill-rule:nonzero;stroke:none;stroke-width:.0352778" transform="translate(-41.675 -33.604)"/><path d="M72.48 93.472c-2.432-.164-4.276-.631-5.478-1.149v-5.605l5.478.89v5.864" style="fill:#f8c361;fill-opacity:1;fill-rule:nonzero;stroke:none;stroke-width:.0352778" transform="translate(-41.675 -33.604)"/><path d="m72.48 94.464-5.478-1.034v-1.107c1.202.518 3.046.985 5.478 1.15v.99" style="fill:#5c6060;fill-opacity:1;fill-rule:nonzero;stroke:none;stroke-width:.0352778" transform="translate(-41.675 -33.604)"/><path d="M65.356 85.157v5.83c0 .865 3.19 2.549 9.037 2.549 5.847 0 9.037-1.684 9.037-2.55v-5.83zm9.037 10.142c-5.368 0-10.801-1.481-10.801-4.312v-6.712c0-.487.395-.882.882-.882h19.838c.487 0 .882.395.882.882v6.712c0 2.83-5.434 4.312-10.801 4.312" style="fill:#171717;fill-opacity:1;fill-rule:nonzero;stroke:none;stroke-width:.0352778" transform="translate(-41.675 -33.604)"/><path d="M84.312 84.275c0 1.895-4.441 3.43-9.92 3.43-5.477 0-9.918-1.535-9.918-3.43 0-1.895 4.44-3.43 9.919-3.43 5.478 0 9.919 1.535 9.919 3.43" style="fill:#f9a82b;fill-opacity:1;fill-rule:nonzero;stroke:none;stroke-width:.0352778" transform="translate(-41.675 -33.604)"/><path d="M74.393 81.726c-5.847 0-9.037 1.684-9.037 2.549s3.19 2.549 9.037 2.549c5.847 0 9.037-1.684 9.037-2.55 0-.864-3.19-2.548-9.037-2.548zm0 6.862c-5.368 0-10.801-1.482-10.801-4.313 0-2.831 5.433-4.313 10.8-4.313 5.368 0 10.802 1.482 10.802 4.313 0 2.83-5.434 4.313-10.801 4.313" style="fill:#171717;fill-opacity:1;fill-rule:nonzero;stroke:none;stroke-width:.0352778" transform="translate(-41.675 -33.604)"/><path d="M103.281 84.755v6.712c0 1.895 4.441 3.43 9.92 3.43 5.477 0 9.918-1.535 9.918-3.43v-6.712H103.28" style="fill:#f9a82b;fill-opacity:1;fill-rule:nonzero;stroke:none;stroke-width:.0352778" transform="translate(-41.675 -33.604)"/><path d="M104.163 85.637v5.83c0 .865 3.19 2.549 9.037 2.549 5.847 0 9.037-1.684 9.037-2.549v-5.83h-18.074M113.2 95.78c-5.367 0-10.8-1.482-10.8-4.313v-6.712c0-.487.394-.882.881-.882h19.838c.487 0 .882.395.882.882v6.712c0 2.831-5.434 4.313-10.8 4.313" style="fill:#171717;fill-opacity:1;fill-rule:nonzero;stroke:none;stroke-width:.0352778" transform="translate(-41.675 -33.604)"/><path d="M113.2 94.016c-.168 0-.334-.002-.498-.004v-5.608l3.433-.189 2.922-.674-2.187.845-2.051.188v5.397c-.515.029-1.054.045-1.619.045m6.74-.96v-5.719l1.334-.307v5.438c-.352.2-.797.4-1.333.587" style="fill:#d28924;fill-opacity:1;fill-rule:nonzero;stroke:none;stroke-width:.0352778" transform="translate(-41.675 -33.604)"/><path d="M112.702 95.116V94.01a29.17 29.17 0 0 0 2.117-.04v.806l-2.117.339m6.836-1.096.403-.108v-.857a8.162 8.162 0 0 0 1.333-.587v1.274l-1.736.278" style="fill:#141312;fill-opacity:1;fill-rule:nonzero;stroke:none;stroke-width:.0352778" transform="translate(-41.675 -33.604)"/><path d="m119.057 87.541.884-.341v.137l-.884.204" style="fill:#d28924;fill-opacity:1;fill-rule:nonzero;stroke:none;stroke-width:.0352778" transform="translate(-41.675 -33.604)"/><path d="M114.819 95.286v-.51l4.72-.756-4.72 1.266" style="fill:#141312;fill-opacity:1;fill-rule:nonzero;stroke:none;stroke-width:.0352778" transform="translate(-41.675 -33.604)"/><path d="M114.819 93.97v-5.396l2.05-.188 2.188-.845.884-.204v5.718c-1.236.432-2.955.793-5.122.916" style="fill:#b26f20;fill-opacity:1;fill-rule:nonzero;stroke:none;stroke-width:.0352778" transform="translate(-41.675 -33.604)"/><path d="M114.819 94.777v-.806c2.167-.123 3.886-.484 5.122-.916v.857l-.403.108-4.72.757" style="fill:#121110;fill-opacity:1;fill-rule:nonzero;stroke:none;stroke-width:.0352778" transform="translate(-41.675 -33.604)"/><path d="M111.148 93.943c-1.465-.108-2.713-.325-3.73-.595v-1.035c0-.987-.66-1.81-1.748-2.463v-2.48l5.478.89v5.683" style="fill:#f8c361;fill-opacity:1;fill-rule:nonzero;stroke:none;stroke-width:.0352778" transform="translate(-41.675 -33.604)"/><path d="m111.148 95.116-3.73-.704v-1.064c1.017.27 2.265.487 3.73.595v1.173" style="fill:#5c6060;fill-opacity:1;fill-rule:nonzero;stroke:none;stroke-width:.0352778" transform="translate(-41.675 -33.604)"/><path d="M104.163 85.637v5.83c0 .865 3.19 2.549 9.037 2.549 5.847 0 9.037-1.684 9.037-2.549v-5.83zM113.2 95.78c-5.367 0-10.8-1.482-10.8-4.313v-6.712c0-.487.394-.882.881-.882h19.838c.487 0 .882.395.882.882v6.712c0 2.831-5.434 4.313-10.8 4.313" style="fill:#171717;fill-opacity:1;fill-rule:nonzero;stroke:none;stroke-width:.0352778" transform="translate(-41.675 -33.604)"/><path d="M123.119 84.755c0 1.895-4.44 3.43-9.919 3.43-5.478 0-9.919-1.535-9.919-3.43 0-1.894 4.441-3.43 9.92-3.43 5.477 0 9.918 1.536 9.918 3.43" style="fill:#f9a82b;fill-opacity:1;fill-rule:nonzero;stroke:none;stroke-width:.0352778" transform="translate(-41.675 -33.604)"/><path d="M113.2 82.206c-5.847 0-9.037 1.684-9.037 2.55 0 .864 3.19 2.548 9.037 2.548 5.847 0 9.037-1.684 9.037-2.549s-3.19-2.549-9.037-2.549zm0 6.862c-5.367 0-10.8-1.482-10.8-4.313 0-2.831 5.433-4.312 10.8-4.312 5.367 0 10.8 1.48 10.8 4.312 0 2.831-5.433 4.313-10.8 4.313" style="fill:#171717;fill-opacity:1;fill-rule:nonzero;stroke:none;stroke-width:.0352778" transform="translate(-41.675 -33.604)"/><path d="M86.698 92.313v6.712c0 1.895 4.44 3.43 9.919 3.43 5.477 0 9.919-1.535 9.919-3.43v-6.712H86.698" style="fill:#f9a82b;fill-opacity:1;fill-rule:nonzero;stroke:none;stroke-width:.0352778" transform="translate(-41.675 -33.604)"/><path d="M87.58 93.195v5.83c0 .865 3.19 2.549 9.037 2.549 5.847 0 9.037-1.684 9.037-2.55v-5.83H87.58m9.037 10.144c-5.368 0-10.801-1.482-10.801-4.313v-6.712c0-.487.395-.882.882-.882h19.838c.487 0 .881.395.881.882v6.712c0 2.83-5.433 4.313-10.8 4.313" style="fill:#171717;fill-opacity:1;fill-rule:nonzero;stroke:none;stroke-width:.0352778" transform="translate(-41.675 -33.604)"/><path d="M106.536 92.313c0 1.895-4.442 3.43-9.92 3.43-5.477 0-9.918-1.535-9.918-3.43 0-1.895 4.44-3.43 9.919-3.43 5.477 0 9.919 1.535 9.919 3.43" style="fill:#f9a82b;fill-opacity:1;fill-rule:nonzero;stroke:none;stroke-width:.0352778" transform="translate(-41.675 -33.604)"/><path d="M96.617 89.764c-5.847 0-9.037 1.684-9.037 2.549s3.19 2.549 9.037 2.549c5.847 0 9.037-1.684 9.037-2.55 0-.864-3.19-2.548-9.037-2.548m0 6.862c-5.368 0-10.801-1.482-10.801-4.313 0-2.831 5.433-4.313 10.8-4.313 5.368 0 10.801 1.482 10.801 4.313 0 2.831-5.433 4.313-10.8 4.313" style="fill:#171717;fill-opacity:1;fill-rule:nonzero;stroke:none;stroke-width:.0352778" transform="translate(-41.675 -33.604)"/><path d="M96.617 101.574c-.262 0-.518-.004-.77-.01v-4.949a29.42 29.42 0 0 0 2.117-.021v4.948c-.432.02-.881.031-1.347.031" style="fill:#d28924;fill-opacity:1;fill-rule:nonzero;stroke:none;stroke-width:.0352778" transform="translate(-41.675 -33.604)"/><path d="M95.847 102.55v-.986a28.995 28.995 0 0 0 2.117-.021v.668l-2.117.34M96.617 96.626c-.257 0-.513-.004-.77-.01v-.778l3.433-.188 2.922-.675-2.187.845-2.05.188v.586c-.449.021-.898.032-1.348.032" style="fill:#141312;fill-opacity:1;fill-rule:nonzero;stroke:none;stroke-width:.0352778" transform="translate(-41.675 -33.604)"/><path d="M103.086 100.704V95.83c.472-.132.918-.28 1.333-.445v4.787c-.366.183-.811.365-1.333.533" style="fill:#d28924;fill-opacity:1;fill-rule:nonzero;stroke:none;stroke-width:.0352778" transform="translate(-41.675 -33.604)"/><path d="m102.685 101.454.4-.108v-.642c.523-.168.968-.35 1.334-.533v1.005l-1.734.278M103.086 95.83V94.77l1.333-.307v.92c-.415.165-.86.313-1.333.445M97.964 102.72v-.51l4.72-.756-4.72 1.266M102.202 94.975l.884-.34v.136l-.884.204" style="fill:#141312;fill-opacity:1;fill-rule:nonzero;stroke:none;stroke-width:.0352778" transform="translate(-41.675 -33.604)"/><path d="M97.964 101.543v-4.949c1.827-.084 3.608-.341 5.122-.765v4.875c-1.265.409-2.983.74-5.122.839" style="fill:#b26f20;fill-opacity:1;fill-rule:nonzero;stroke:none;stroke-width:.0352778" transform="translate(-41.675 -33.604)"/><path d="M97.964 102.21v-.667c2.139-.1 3.857-.43 5.122-.839v.642l-.401.108-4.72.757M97.964 96.594v-.586l2.05-.188 2.188-.845.884-.204v1.058c-1.514.424-3.295.68-5.122.765" style="fill:#121110;fill-opacity:1;fill-rule:nonzero;stroke:none;stroke-width:.0352778" transform="translate(-41.675 -33.604)"/><path d="M94.293 101.48c-2.518-.212-4.366-.75-5.478-1.31v-4.786c1.503.598 3.435.983 5.478 1.148v4.947" style="fill:#f8c361;fill-opacity:1;fill-rule:nonzero;stroke:none;stroke-width:.0352778" transform="translate(-41.675 -33.604)"/><path d="m94.293 102.55-5.478-1.034v-1.345c1.112.56 2.96 1.097 5.478 1.308v1.071M94.293 96.532c-2.043-.165-3.975-.55-5.478-1.148v-.58l5.478.89v.838" style="fill:#5c6060;fill-opacity:1;fill-rule:nonzero;stroke:none;stroke-width:.0352778" transform="translate(-41.675 -33.604)"/><path d="M87.58 93.195v5.83c0 .865 3.19 2.549 9.037 2.549 5.847 0 9.037-1.684 9.037-2.55v-5.83zm9.037 10.143c-5.368 0-10.801-1.482-10.801-4.313v-6.712c0-.487.395-.882.882-.882h19.838c.487 0 .881.395.881.882v6.712c0 2.83-5.433 4.313-10.8 4.313" style="fill:#171717;fill-opacity:1;fill-rule:nonzero;stroke:none;stroke-width:.0352778" transform="translate(-41.675 -33.604)"/><path d="M106.536 92.313c0 1.895-4.442 3.43-9.92 3.43-5.477 0-9.918-1.535-9.918-3.43 0-1.895 4.44-3.43 9.919-3.43 5.477 0 9.919 1.535 9.919 3.43" style="fill:#f9a82b;fill-opacity:1;fill-rule:nonzero;stroke:none;stroke-width:.0352778" transform="translate(-41.675 -33.604)"/><path d="M96.617 89.764c-5.847 0-9.037 1.684-9.037 2.549s3.19 2.549 9.037 2.549c5.847 0 9.037-1.684 9.037-2.55 0-.864-3.19-2.548-9.037-2.548zm0 6.862c-5.368 0-10.801-1.482-10.801-4.313 0-2.831 5.433-4.313 10.8-4.313 5.368 0 10.801 1.482 10.801 4.313 0 2.831-5.433 4.313-10.8 4.313" style="fill:#171717;fill-opacity:1;fill-rule:nonzero;stroke:none;stroke-width:.0352778" transform="translate(-41.675 -33.604)"/><path d="M125.655 92.777v6.711c0 1.895 4.44 3.431 9.918 3.431 5.478 0 9.92-1.536 9.92-3.43v-6.712h-19.838" style="fill:#f9a82b;fill-opacity:1;fill-rule:nonzero;stroke:none;stroke-width:.0352778" transform="translate(-41.675 -33.604)"/><path d="M126.537 93.659v5.83c0 .864 3.19 2.548 9.036 2.548 5.847 0 9.037-1.684 9.037-2.549v-5.83h-18.073m9.036 10.143c-5.367 0-10.8-1.481-10.8-4.313v-6.711c0-.487.394-.882.882-.882h19.837c.487 0 .882.395.882.882v6.711c0 2.832-5.433 4.313-10.8 4.313" style="fill:#171717;fill-opacity:1;fill-rule:nonzero;stroke:none;stroke-width:.0352778" transform="translate(-41.675 -33.604)"/><path d="M145.492 92.777c0 1.894-4.44 3.43-9.919 3.43-5.478 0-9.918-1.536-9.918-3.43 0-1.895 4.44-3.431 9.918-3.431 5.478 0 9.92 1.536 9.92 3.43" style="fill:#f9a82b;fill-opacity:1;fill-rule:nonzero;stroke:none;stroke-width:.0352778" transform="translate(-41.675 -33.604)"/><path d="M135.573 90.228c-5.847 0-9.036 1.684-9.036 2.549 0 .864 3.19 2.548 9.036 2.548 5.847 0 9.037-1.684 9.037-2.548 0-.865-3.19-2.55-9.037-2.55m0 6.862c-5.367 0-10.8-1.481-10.8-4.312 0-2.832 5.433-4.313 10.8-4.313 5.368 0 10.801 1.481 10.801 4.313 0 2.83-5.433 4.312-10.8 4.312" style="fill:#171717;fill-opacity:1;fill-rule:nonzero;stroke:none;stroke-width:.0352778" transform="translate(-41.675 -33.604)"/><path d="M135.573 102.037c-.196 0-.39-.002-.58-.006v-4.948a28.79 28.79 0 0 0 2.117-.035v4.948c-.49.027-1.002.04-1.537.04M142.232 101.105V96.24c.474-.14.92-.295 1.332-.468v4.764c-.355.195-.8.39-1.332.57" style="fill:#d28924;fill-opacity:1;fill-rule:nonzero;stroke:none;stroke-width:.0352778" transform="translate(-41.675 -33.604)"/><path d="M135.573 97.09c-.193 0-.387-.003-.58-.007v-.811l3.433-.189 2.922-.674-2.187.845-2.051.188v.607c-.51.026-1.024.04-1.537.04m6.659-.85v-1.034l1.332-.307v.873c-.411.173-.858.329-1.332.468" style="fill:#141312;fill-opacity:1;fill-rule:nonzero;stroke:none;stroke-width:.0352778" transform="translate(-41.675 -33.604)"/><path d="m141.348 95.41.884-.342v.137l-.884.204" style="fill:#141312;fill-opacity:1;fill-rule:nonzero;stroke:none;stroke-width:.0352778" transform="translate(-41.675 -33.604)"/><path d="M137.11 101.997v-4.948c1.837-.098 3.619-.37 5.122-.81v4.866c-1.245.425-2.964.776-5.122.892" style="fill:#b26f20;fill-opacity:1;fill-rule:nonzero;stroke:none;stroke-width:.0352778" transform="translate(-41.675 -33.604)"/><path d="M137.11 97.049v-.607l2.051-.188 2.187-.845.884-.204v1.034c-1.503.44-3.285.712-5.122.81" style="fill:#121110;fill-opacity:1;fill-rule:nonzero;stroke:none;stroke-width:.0352778" transform="translate(-41.675 -33.604)"/><path d="M133.44 101.958c-1.43-.11-2.651-.324-3.65-.589v-1.035a.882.882 0 0 0-.882-.882h-.947V95.922c1.521.573 3.45.938 5.478 1.088v4.948" style="fill:#f8c361;fill-opacity:1;fill-rule:nonzero;stroke:none;stroke-width:.0352778" transform="translate(-41.675 -33.604)"/><path d="M133.44 97.01c-2.028-.15-3.958-.515-5.48-1.089v-.683l5.48.89v.882" style="fill:#5c6060;fill-opacity:1;fill-rule:nonzero;stroke:none;stroke-width:.0352778" transform="translate(-41.675 -33.604)"/><path d="M126.537 93.659v5.83c0 .864 3.19 2.548 9.036 2.548 5.847 0 9.037-1.684 9.037-2.549v-5.83h-18.073m9.036 10.143c-5.367 0-10.8-1.481-10.8-4.313v-6.711c0-.487.394-.882.882-.882h19.837c.487 0 .882.395.882.882v6.711c0 2.832-5.433 4.313-10.8 4.313" style="fill:#171717;fill-opacity:1;fill-rule:nonzero;stroke:none;stroke-width:.0352778" transform="translate(-41.675 -33.604)"/><path d="M145.492 92.777c0 1.894-4.44 3.43-9.919 3.43-5.478 0-9.918-1.536-9.918-3.43 0-1.895 4.44-3.431 9.918-3.431 5.478 0 9.92 1.536 9.92 3.43" style="fill:#f9a82b;fill-opacity:1;fill-rule:nonzero;stroke:none;stroke-width:.0352778" transform="translate(-41.675 -33.604)"/><path d="M135.573 90.228c-5.847 0-9.036 1.683-9.036 2.549 0 .864 3.19 2.548 9.036 2.548 5.847 0 9.037-1.684 9.037-2.548 0-.866-3.19-2.55-9.037-2.55zm0 6.861c-5.367 0-10.8-1.481-10.8-4.312 0-2.832 5.433-4.313 10.8-4.313 5.368 0 10.801 1.481 10.801 4.313 0 2.83-5.433 4.312-10.8 4.312" style="fill:#171717;fill-opacity:1;fill-rule:nonzero;stroke:none;stroke-width:.0352778" transform="translate(-41.675 -33.604)"/><path d="M109.07 100.334v6.712c0 1.895 4.442 3.43 9.92 3.43s9.918-1.535 9.918-3.43v-6.712h-19.837" style="fill:#f9a82b;fill-opacity:1;fill-rule:nonzero;stroke:none;stroke-width:.0352778" transform="translate(-41.675 -33.604)"/><path d="M109.953 101.216v5.83c0 .865 3.19 2.549 9.037 2.549 5.847 0 9.036-1.684 9.036-2.549v-5.83h-18.073m9.037 10.143c-5.368 0-10.801-1.482-10.801-4.313v-6.712c0-.487.395-.882.882-.882h19.837c.488 0 .882.395.882.882v6.712c0 2.831-5.433 4.313-10.8 4.313" style="fill:#171717;fill-opacity:1;fill-rule:nonzero;stroke:none;stroke-width:.0352778" transform="translate(-41.675 -33.604)"/><path d="M118.99 109.595c-.262 0-.519-.003-.77-.01v-5.826l3.433-.188 2.922-.675-2.187.845-2.051.189v5.634c-.432.02-.881.03-1.347.03m6.469-.868v-6.033l1.332-.308v5.807c-.365.184-.81.365-1.332.534" style="fill:#d28924;fill-opacity:1;fill-rule:nonzero;stroke:none;stroke-width:.0352778" transform="translate(-41.675 -33.604)"/><path d="M118.22 110.471v-.886a28.993 28.993 0 0 0 2.117-.02v.567l-2.117.34m6.836-1.096.403-.109v-.541a9.46 9.46 0 0 0 1.332-.534v.905l-1.735.279" style="fill:#141312;fill-opacity:1;fill-rule:nonzero;stroke:none;stroke-width:.0352778" transform="translate(-41.675 -33.604)"/><path d="m124.575 102.897.884-.342v.138l-.884.204" style="fill:#d28924;fill-opacity:1;fill-rule:nonzero;stroke:none;stroke-width:.0352778" transform="translate(-41.675 -33.604)"/><path d="M120.337 110.642v-.51l4.719-.756-4.72 1.266" style="fill:#141312;fill-opacity:1;fill-rule:nonzero;stroke:none;stroke-width:.0352778" transform="translate(-41.675 -33.604)"/><path d="M120.337 109.564v-5.634l2.05-.189 2.188-.844.884-.204v6.033c-1.266.408-2.984.739-5.122.838" style="fill:#b26f20;fill-opacity:1;fill-rule:nonzero;stroke:none;stroke-width:.0352778" transform="translate(-41.675 -33.604)"/><path d="M120.337 110.132v-.568c2.138-.1 3.856-.43 5.122-.838v.541l-.403.109-4.72.756" style="fill:#121110;fill-opacity:1;fill-rule:nonzero;stroke:none;stroke-width:.0352778" transform="translate(-41.675 -33.604)"/><path d="M116.667 109.5c-2.519-.21-4.367-.748-5.48-1.308v-5.466l5.48.89v5.885" style="fill:#f8c361;fill-opacity:1;fill-rule:nonzero;stroke:none;stroke-width:.0352778" transform="translate(-41.675 -33.604)"/><path d="m116.667 110.471-5.48-1.033v-1.246c1.113.56 2.961 1.097 5.48 1.309v.97" style="fill:#5c6060;fill-opacity:1;fill-rule:nonzero;stroke:none;stroke-width:.0352778" transform="translate(-41.675 -33.604)"/><path d="M109.953 101.216v5.83c0 .865 3.19 2.549 9.037 2.549 5.847 0 9.036-1.684 9.036-2.549v-5.83zm9.037 10.143c-5.368 0-10.801-1.482-10.801-4.313v-6.712c0-.487.395-.882.882-.882h19.837c.488 0 .882.395.882.882v6.712c0 2.831-5.433 4.313-10.8 4.313" style="fill:#171717;fill-opacity:1;fill-rule:nonzero;stroke:none;stroke-width:.0352778" transform="translate(-41.675 -33.604)"/><path d="M128.908 100.334c0 1.895-4.44 3.431-9.918 3.431-5.478 0-9.92-1.536-9.92-3.43 0-1.895 4.442-3.431 9.92-3.431s9.918 1.536 9.918 3.43" style="fill:#f9a82b;fill-opacity:1;fill-rule:nonzero;stroke:none;stroke-width:.0352778" transform="translate(-41.675 -33.604)"/><path d="M118.99 97.786c-5.847 0-9.037 1.683-9.037 2.548s3.19 2.55 9.037 2.55c5.847 0 9.036-1.685 9.036-2.55 0-.865-3.19-2.548-9.036-2.548zm0 6.861c-5.368 0-10.801-1.482-10.801-4.313 0-2.83 5.433-4.312 10.8-4.312 5.368 0 10.801 1.481 10.801 4.312 0 2.831-5.433 4.313-10.8 4.313" style="fill:#171717;fill-opacity:1;fill-rule:nonzero;stroke:none;stroke-width:.0352778" transform="translate(-41.675 -33.604)"/><path d="M151.48 123.395v7.056c0 1.991 4.667 3.606 10.426 3.606 5.758 0 10.426-1.615 10.426-3.606v-7.056H151.48" style="fill:#45c0a8;fill-opacity:1;fill-rule:nonzero;stroke:none;stroke-width:.0352778" transform="translate(-41.675 -33.604)"/><path d="M152.361 124.277v6.174c0 .925 3.369 2.724 9.545 2.724 6.175 0 9.545-1.8 9.545-2.724v-6.174h-19.09m9.545 10.662c-5.62 0-11.309-1.542-11.309-4.488v-7.056c0-.487.395-.882.882-.882h20.853c.488 0 .882.395.882.882v7.056c0 2.946-5.688 4.488-11.308 4.488" style="fill:#171717;fill-opacity:1;fill-rule:nonzero;stroke:none;stroke-width:.0352778" transform="translate(-41.675 -33.604)"/><path d="M161.906 133.175c-.207 0-.41-.002-.61-.006v-5.994l3.641-.189 3.1-.674-2.32.845-2.175.188v5.786c-.521.029-1.067.044-1.636.044m7.07-1.009v-6.058l1.414-.307v5.744a8.785 8.785 0 0 1-1.415.621" style="fill:#3aa793;fill-opacity:1;fill-rule:nonzero;stroke:none;stroke-width:.0352778" transform="translate(-41.675 -33.604)"/><path d="M161.296 133.887v-.718a30.53 30.53 0 0 0 2.246-.038v.416l-2.246.34m7.255-1.097.424-.107v-.517a8.785 8.785 0 0 0 1.415-.621v.967l-1.839.278" style="fill:#131414;fill-opacity:1;fill-rule:nonzero;stroke:none;stroke-width:.0352778" transform="translate(-41.675 -33.604)"/><path d="m168.038 126.312.937-.341v.137l-.937.204" style="fill:#3aa793;fill-opacity:1;fill-rule:nonzero;stroke:none;stroke-width:.0352778" transform="translate(-41.675 -33.604)"/><path d="M163.542 134.057v-.51l5.009-.757-5.01 1.267" style="fill:#131414;fill-opacity:1;fill-rule:nonzero;stroke:none;stroke-width:.0352778" transform="translate(-41.675 -33.604)"/><path d="M163.542 133.131v-5.786l2.176-.188 2.32-.845.937-.204v6.058c-1.315.458-3.138.84-5.433.965" style="fill:#338e7e;fill-opacity:1;fill-rule:nonzero;stroke:none;stroke-width:.0352778" transform="translate(-41.675 -33.604)"/><path d="M163.542 133.547v-.416c2.295-.125 4.118-.507 5.433-.965v.517l-.424.107-5.01.757" style="fill:#101212;fill-opacity:1;fill-rule:nonzero;stroke:none;stroke-width:.0352778" transform="translate(-41.675 -33.604)"/><path d="M159.647 133.09c-1.516-.117-2.809-.348-3.865-.634v-1.116a.882.882 0 0 0-.882-.882h-1.066v-4.317l5.813.89v6.06" style="fill:#6ccdbc;fill-opacity:1;fill-rule:nonzero;stroke:none;stroke-width:.0352778" transform="translate(-41.675 -33.604)"/><path d="m159.647 133.887-3.865-.688v-.743c1.056.286 2.349.517 3.865.634v.797" style="fill:#5c6060;fill-opacity:1;fill-rule:nonzero;stroke:none;stroke-width:.0352778" transform="translate(-41.675 -33.604)"/><path d="M152.361 124.277v6.174c0 .925 3.369 2.724 9.545 2.724 6.175 0 9.545-1.8 9.545-2.724v-6.174zm9.545 10.662c-5.62 0-11.309-1.542-11.309-4.488v-7.056c0-.487.395-.882.882-.882h20.853c.488 0 .882.395.882.882v7.056c0 2.946-5.688 4.488-11.308 4.488" style="fill:#171717;fill-opacity:1;fill-rule:nonzero;stroke:none;stroke-width:.0352778" transform="translate(-41.675 -33.604)"/><path d="M172.332 123.395c0 1.992-4.667 3.606-10.426 3.606s-10.427-1.614-10.427-3.606c0-1.991 4.668-3.606 10.427-3.606 5.758 0 10.426 1.615 10.426 3.606" style="fill:#45c0a8;fill-opacity:1;fill-rule:nonzero;stroke:none;stroke-width:.0352778" transform="translate(-41.675 -33.604)"/><path d="M161.906 120.67c-6.176 0-9.545 1.8-9.545 2.725s3.369 2.724 9.545 2.724c6.175 0 9.545-1.799 9.545-2.724 0-.924-3.37-2.724-9.545-2.724zm0 7.213c-5.62 0-11.309-1.542-11.309-4.488 0-2.946 5.69-4.488 11.309-4.488 5.62 0 11.308 1.542 11.308 4.488 0 2.946-5.688 4.488-11.308 4.488" style="fill:#171717;fill-opacity:1;fill-rule:nonzero;stroke:none;stroke-width:.0352778" transform="translate(-41.675 -33.604)"/><path d="M134.047 131.34v7.056c0 1.991 4.667 3.606 10.426 3.606 5.758 0 10.427-1.615 10.427-3.606v-7.056h-20.853" style="fill:#45c0a8;fill-opacity:1;fill-rule:nonzero;stroke:none;stroke-width:.0352778" transform="translate(-41.675 -33.604)"/><path d="M134.928 132.222v6.174c0 .924 3.37 2.724 9.545 2.724 6.176 0 9.545-1.8 9.545-2.724v-6.174h-19.09m9.545 10.662c-5.62 0-11.308-1.542-11.308-4.488v-7.056c0-.487.394-.882.882-.882H154.9c.487 0 .882.395.882.882v7.056c0 2.946-5.69 4.488-11.31 4.488" style="fill:#171717;fill-opacity:1;fill-rule:nonzero;stroke:none;stroke-width:.0352778" transform="translate(-41.675 -33.604)"/><path d="M144.473 141.12c-.278 0-.55-.004-.816-.01v-6.076l3.641-.188 3.1-.674-2.32.844-2.175.189v5.881c-.459.022-.936.034-1.43.034m6.864-.94v-6.212l1.414-.308v5.941a9.74 9.74 0 0 1-1.414.58" style="fill:#3aa793;fill-opacity:1;fill-rule:nonzero;stroke:none;stroke-width:.0352778" transform="translate(-41.675 -33.604)"/><path d="M143.657 141.746v-.637a31.061 31.061 0 0 0 2.246-.023v.32l-2.246.34m7.252-1.096.428-.108v-.361a9.74 9.74 0 0 0 1.414-.58v.771l-1.842.278" style="fill:#131414;fill-opacity:1;fill-rule:nonzero;stroke:none;stroke-width:.0352778" transform="translate(-41.675 -33.604)"/><path d="m150.399 134.172.938-.341v.137l-.938.204" style="fill:#3aa793;fill-opacity:1;fill-rule:nonzero;stroke:none;stroke-width:.0352778" transform="translate(-41.675 -33.604)"/><path d="M145.903 141.917v-.51l5.006-.757-5.006 1.267" style="fill:#131414;fill-opacity:1;fill-rule:nonzero;stroke:none;stroke-width:.0352778" transform="translate(-41.675 -33.604)"/><path d="M145.903 141.087v-5.882l2.176-.19 2.32-.843.938-.204v6.213c-1.338.44-3.161.798-5.434.906" style="fill:#338e7e;fill-opacity:1;fill-rule:nonzero;stroke:none;stroke-width:.0352778" transform="translate(-41.675 -33.604)"/><path d="M145.903 141.407v-.32c2.273-.108 4.096-.466 5.434-.906v.361l-.428.108-5.006.757" style="fill:#101212;fill-opacity:1;fill-rule:nonzero;stroke:none;stroke-width:.0352778" transform="translate(-41.675 -33.604)"/><path d="M142.008 141.018c-2.682-.229-4.644-.813-5.813-1.417V134l5.813.89v6.127" style="fill:#6ccdbc;fill-opacity:1;fill-rule:nonzero;stroke:none;stroke-width:.0352778" transform="translate(-41.675 -33.604)"/><path d="m142.008 141.746-5.813-1.033V139.6c1.17.604 3.13 1.188 5.813 1.417v.728" style="fill:#5c6060;fill-opacity:1;fill-rule:nonzero;stroke:none;stroke-width:.0352778" transform="translate(-41.675 -33.604)"/><path d="M134.928 132.222v6.174c0 .924 3.37 2.724 9.545 2.724 6.176 0 9.545-1.8 9.545-2.724v-6.174zm9.545 10.662c-5.62 0-11.308-1.542-11.308-4.488v-7.056c0-.487.394-.882.882-.882H154.9c.487 0 .882.395.882.882v7.056c0 2.946-5.69 4.488-11.31 4.488" style="fill:#171717;fill-opacity:1;fill-rule:nonzero;stroke:none;stroke-width:.0352778" transform="translate(-41.675 -33.604)"/><path d="M154.9 131.34c0 1.992-4.668 3.606-10.427 3.606-5.759 0-10.426-1.614-10.426-3.606 0-1.991 4.667-3.607 10.426-3.607s10.427 1.616 10.427 3.607" style="fill:#45c0a8;fill-opacity:1;fill-rule:nonzero;stroke:none;stroke-width:.0352778" transform="translate(-41.675 -33.604)"/><path d="M144.473 128.615c-6.176 0-9.545 1.8-9.545 2.725s3.37 2.724 9.545 2.724c6.176 0 9.545-1.8 9.545-2.724 0-.925-3.37-2.725-9.545-2.725zm0 7.213c-5.62 0-11.308-1.542-11.308-4.488 0-2.946 5.688-4.488 11.308-4.488s11.309 1.542 11.309 4.488c0 2.946-5.69 4.488-11.31 4.488" style="fill:#171717;fill-opacity:1;fill-rule:nonzero;stroke:none;stroke-width:.0352778" transform="translate(-41.675 -33.604)"/><path d="M118.22 120.184a.88.88 0 0 1-.305-.055L55.14 97.017l.29 15.46a.882.882 0 0 1-.866.9h-.006a.887.887 0 0 1-.892-.866l-.314-16.75a.883.883 0 0 1 1.186-.845l63.988 23.558a.882.882 0 0 1-.305 1.71" style="fill:#f9cf7e;fill-opacity:1;fill-rule:nonzero;stroke:none;stroke-width:.0352778" transform="translate(-41.675 -33.604)"/><path d="M143.657 152.482a.88.88 0 0 1-.308-.056l-65.865-24.51v15.257a.882.882 0 1 1-1.764 0v-16.526a.881.881 0 0 1 1.19-.827l67.055 24.953a.882.882 0 0 1-.308 1.709" style="fill:#83d5c6;fill-opacity:1;fill-rule:nonzero;stroke:none;stroke-width:.0352778" transform="translate(-41.675 -33.604)"/><path d="M123.691 120.184a.882.882 0 0 1-.393-1.672l31.209-15.536a.88.88 0 1 1 .786 1.578l-31.21 15.537a.88.88 0 0 1-.392.093" style="fill:#d89841;fill-opacity:1;fill-rule:nonzero;stroke:none;stroke-width:.0352778" transform="translate(-41.675 -33.604)"/><path d="M149.353 152.26a.882.882 0 0 1-.393-1.672l33.082-16.432a.882.882 0 1 1 .785 1.58l-33.083 16.432a.884.884 0 0 1-.391.092" style="fill:#4db79d;fill-opacity:1;fill-rule:nonzero;stroke:none;stroke-width:.0352778" transform="translate(-41.675 -33.604)"/><path d="m73.78 145.746-.637-.25a.884.884 0 0 1-.127-.455v-14.754l.882-.417-.117 15.876" style="fill:#131313;fill-opacity:1;fill-rule:nonzero;stroke:none;stroke-width:.0352778" transform="translate(-41.675 -33.604)"/><path style="font-size:18.3019px;line-height:1.25;font-family:Legothick;-inkscape-font-specification:Legothick;letter-spacing:-.529167px;word-spacing:0;fill:#ff0;stroke:none" d="M103.413 9.143a6.862 6.862 0 0 0-.67.029 6.911 6.911 0 0 0-3.758 1.26c-1.22-1.52-3.612-1.518-5.129-.52-1.215-.999-3.071-.844-4.379-.082-.314.126-.615.507-.877.58-1.513-1.42-3.76-1.37-5.685-1.123-.866.127-1.719.498-2.444.92-1.143-1.224-2.945-1.034-4.462-1.016-1.592-.053-3.418-.081-4.643 1.113-1.713-1.345-4.095-1.296-6.125-.88-.789.188-1.561.705-2.192 1.06-1.185-1.515-3.595-1.663-5.086-.547-1.565-1.284-3.952-.76-5.324.522-1.479-1.477-3.794-1.482-5.712-1.085a6.357 6.357 0 0 0-2.977 1.665c-.99-1.41-2.784-1.996-4.448-1.865-2.368-.124-4.644 1.212-5.866 3.214-1.264 2.02-1.894 4.373-2.378 6.685-.424 1.99-.517 4.451 1.125 5.942 1.264 1.19 3.143 1.193 4.764 1.032 1.414-.204 2.785-.81 3.828-1.795.789 1.2 2.23 1.905 3.636 1.84 1.67.111 3.457-.191 4.803-1.245 1.214 1.5 3.583 1.56 5.086.524 1.536 1.172 3.814.783 5.182-.467 1.607 1.365 3.91 1.358 5.882 1.04 1.408-.312 2.681-1.199 3.62-2.222.418 1.623 2.16 2.597 3.774 2.332a4.752 4.752 0 0 0 2.957-1.588c.918 1.59 3.074 2.01 4.674 1.265.377-.096.72-.594 1.054-.131 1.577.903 3.67.43 4.941-.764 1.462 1.452 3.75 1.48 5.644 1.08a6.402 6.402 0 0 0 3.052-1.736c.804 1.346 2.4 1.992 3.924 1.933 1.932.113 3.967-.536 5.367-1.834.96 1.523 2.896 1.966 4.589 1.825a7.21 7.21 0 0 0 3.905-1.227c1.479 1.755 4.408 1.465 5.885-.145 1.419 1.56 3.745 1.565 5.666 1.207.867-.195 1.71-.544 2.418-1.088 1.21 1.473 3.582 1.597 5.074.489 1.76 1.406 4.514.648 5.792-1.072.972-1.383 1.153-3.135 1.629-4.721.58-2.41 1.44-4.77 1.785-7.227.015-2.02-2.204-3.526-4.082-3.047-.611.044-1.188.46-1.71.615-1.573-1.204-3.904-.722-5.263.582-1.473-1.518-3.823-1.466-5.752-1.088-.853.166-1.705.71-2.37 1.078-1.353-1.679-4.03-1.572-5.582-.228-.323.518-.637-.272-1.022-.355-1.045-.62-2.298-.768-3.491-.701a6.485 6.485 0 0 0-4.493 1.86c-.935-1.325-2.56-1.883-4.136-1.893zm-89.424.03c-.346.002-.69.012-1.023.012a6.276 6.276 0 0 0-4.614 1.996c-1.907 2.067-2.643 4.893-3.269 7.562-.389 1.971-.677 4.34.78 5.966.844 1.068 2.236 1.395 3.536 1.388 1.397.027 2.935.099 4.135-.74 1.314 1.044 3.252.818 4.588.037 2.193 1.585 5.56.195 6.377-2.287.66-1.824.98-3.748 1.553-5.6.45-1.76 1.076-3.507 1.232-5.322-.083-2.067-2.427-3.464-4.336-2.863-.499.113-.958.347-1.4.596-1.312-1.077-3.255-.815-4.614-.04-.849-.65-1.906-.714-2.945-.706z" transform="translate(.954 1.708)"/><path style="font-size:18.3019px;line-height:1.25;font-family:Legothick;-inkscape-font-specification:Legothick;letter-spacing:-.529167px;word-spacing:0;fill:#fff;stroke:none" d="M12.945 10.777c-1.782 0-3.221.884-4.32 2.653-.597.976-1.146 2.38-1.646 4.21-.415 1.574-.623 2.806-.623 3.697 0 2.11.97 3.166 2.91 3.166h1.83c.854 0 1.574-.33 2.16-.988.537-.598.805-1.251.805-1.959 0-.476-.146-.866-.439-1.171-.293-.305-.726-.458-1.3-.458.855 0 1.574-.329 2.16-.988.537-.597.806-1.25.806-1.958 0-.476-.147-.867-.44-1.172-.292-.305-.726-.457-1.3-.457.855 0 1.575-.33 2.16-.989.537-.597.806-1.25.806-1.958 0-.475-.146-.866-.44-1.171-.292-.305-.725-.457-1.299-.457zm6.444 0c-.61 0-1.196.201-1.757.604-.586.439-.977 1-1.172 1.683l-2.452 9.151a2.532 2.532 0 0 0-.091.641c0 .512.182.915.548 1.208.33.28.745.42 1.245.42.537 0 1.043-.152 1.52-.457.524-.33.926-.787 1.207-1.373l.128.586c.195.83.757 1.245 1.684 1.245.61 0 1.196-.196 1.757-.586.586-.44.97-1 1.153-1.684l2.453-9.15c.06-.232.091-.452.091-.66 0-.5-.17-.89-.513-1.171-.341-.293-.762-.44-1.263-.44-.536 0-1.042.154-1.518.459-.525.329-.928.786-1.209 1.372l-.128-.585c-.195-.842-.756-1.263-1.683-1.263zm19.787 0c-1.781 0-3.22.884-4.319 2.653-.598.976-1.147 2.38-1.647 4.21-.415 1.574-.623 2.806-.623 3.697 0 2.11.97 3.166 2.91 3.166h.915c1.367 0 2.581-.525 3.643-1.574.817-.818 1.342-1.666 1.574-2.544.06-.22.091-.433.091-.64 0-.513-.17-.91-.512-1.19-.342-.293-.763-.44-1.263-.44-1.086 0-1.94.52-2.563 1.556.025-.415.16-1.092.404-2.031.256-.94.481-1.617.676-2.032.037.513.214.903.531 1.171.317.257.714.385 1.19.385.622 0 1.214-.202 1.775-.604.574-.415.958-.97 1.153-1.665.074-.28.11-.598.11-.952 0-.842-.213-1.544-.64-2.105-.55-.708-1.38-1.061-2.49-1.061zm9.245 0c-1.782 0-3.222.884-4.32 2.653-.598.976-1.147 2.38-1.647 4.21-.415 1.574-.622 2.806-.622 3.697 0 2.11.97 3.166 2.91 3.166h.915c1.781 0 3.22-.884 4.319-2.654.598-.976 1.14-2.379 1.629-4.21.427-1.573.64-2.805.64-3.696 0-2.111-.97-3.166-2.91-3.166zm7.376 0c-.61 0-1.195.201-1.757.604-.585.439-.975 1-1.17 1.683l-2.453 9.151a2.532 2.532 0 0 0-.092.641c0 .512.183.915.55 1.208.329.28.744.42 1.244.42.537 0 1.043-.152 1.519-.457.524-.33.927-.787 1.208-1.373l.128.586c.195.83.756 1.245 1.684 1.245.61 0 1.195-.196 1.757-.586.585-.44.97-1 1.153-1.684l2.452-9.15c.061-.232.092-.452.092-.66 0-.5-.171-.89-.513-1.171-.342-.293-.762-.44-1.262-.44-.537 0-1.044.154-1.52.459-.524.329-.927.786-1.207 1.372l-.129-.585c-.195-.842-.756-1.263-1.684-1.263Zm11.167 0c-1.526 0-2.837.664-3.936 1.994-1.024 1.233-1.537 2.569-1.537 4.008 0 .964.28 1.733.842 2.307-.72.183-1.3.549-1.739 1.098-.427.549-.64 1.14-.64 1.775 0 .708.262 1.293.787 1.757.598.525 1.446.787 2.544.787h.915c1.5 0 2.806-.665 3.916-1.995 1.038-1.232 1.556-2.562 1.556-3.99 0-.976-.28-1.75-.842-2.324a3.205 3.205 0 0 0 1.757-1.116c.415-.537.622-1.123.622-1.757 0-.72-.262-1.306-.787-1.757-.598-.525-1.446-.787-2.544-.787zm7.34 0c-.83 0-1.537.317-2.123.952-.574.622-.86 1.287-.86 1.994 0 .867.44 1.391 1.318 1.574l-1.867 6.918a2.654 2.654 0 0 0-.092.677c0 .5.171.891.513 1.172.341.28.763.42 1.263.42.622 0 1.201-.188 1.738-.567.586-.427.97-.994 1.153-1.702l1.867-6.918a2.934 2.934 0 0 0 1.83-1.098c.44-.549.659-1.135.659-1.757 0-.488-.147-.884-.44-1.19-.292-.317-.725-.475-1.299-.475zm9.629 0c-1.22 0-2.282.427-3.185 1.28-.732.696-1.22 1.49-1.464 2.38l-2.087 7.778a2.654 2.654 0 0 0-.091.677c0 .5.17.891.512 1.172.342.28.763.42 1.263.42.622 0 1.202-.188 1.739-.567.585-.427.97-.994 1.153-1.702a2.654 2.654 0 0 0-.092.677c0 .5.171.891.513 1.172.341.28.762.42 1.263.42.622 0 1.201-.188 1.738-.567.586-.427.97-.994 1.153-1.702.232-.842.348-1.604.348-2.288 0-.317-.024-.622-.073-.915.683-.94 1.183-2.098 1.5-3.477a7.565 7.565 0 0 0 .202-1.647c0-1-.262-1.77-.787-2.306-.525-.537-1.269-.805-2.233-.805zm18.835 0c-1.781 0-3.22.884-4.319 2.653-.598.976-1.147 2.38-1.647 4.21-.415 1.574-.623 2.806-.623 3.697 0 2.11.97 3.166 2.91 3.166h.915c1.367 0 2.581-.525 3.643-1.574.817-.818 1.342-1.666 1.574-2.544.06-.22.091-.433.091-.64 0-.513-.17-.91-.512-1.19-.342-.293-.763-.44-1.263-.44-1.086 0-1.94.52-2.563 1.556.025-.415.16-1.092.404-2.031.256-.94.481-1.617.677-2.032.036.513.213.903.53 1.171.317.257.714.385 1.19.385.622 0 1.214-.202 1.775-.604.573-.415.958-.97 1.153-1.665.074-.28.11-.598.11-.952 0-.842-.213-1.544-.64-2.105-.55-.708-1.38-1.061-2.49-1.061zm9.245 0c-1.782 0-3.222.884-4.32 2.653-.598.976-1.147 2.38-1.647 4.21-.415 1.574-.622 2.806-.622 3.697 0 2.11.97 3.166 2.91 3.166h.915c1.366 0 2.58-.525 3.642-1.574.818-.818 1.342-1.666 1.574-2.544.06-.22.091-.433.091-.64 0-.513-.17-.91-.512-1.19-.342-.293-.763-.44-1.263-.44-1.086 0-1.94.52-2.562 1.556.024-.415.158-1.092.402-2.031.257-.94.482-1.617.677-2.032.037.513.214.903.531 1.171.317.257.714.385 1.19.385.622 0 1.214-.202 1.775-.604.574-.415.958-.97 1.153-1.665.073-.28.11-.598.11-.952 0-.842-.213-1.544-.64-2.105-.55-.708-1.38-1.061-2.49-1.061zm14.022 0c-1.781 0-3.222.884-4.32 2.653-.598.976-1.146 2.38-1.647 4.21-.414 1.574-.622 2.806-.622 3.697 0 2.11.97 3.166 2.91 3.166h.915c1.782 0 3.221-.884 4.32-2.654.597-.976 1.14-2.379 1.628-4.21.427-1.573.641-2.805.641-3.696 0-2.111-.97-3.166-2.91-3.166zm7.377 0c-.61 0-1.195.201-1.757.604-.585.439-.976 1-1.171 1.683l-2.453 9.151a2.533 2.533 0 0 0-.091.641c0 .512.183.915.549 1.208.33.28.744.42 1.244.42.537 0 1.043-.152 1.52-.457.524-.33.927-.787 1.207-1.373l.128.586c.196.83.757 1.245 1.684 1.245.61 0 1.196-.196 1.757-.586.586-.44.97-1 1.153-1.684l2.453-9.15c.06-.232.091-.452.091-.66 0-.5-.17-.89-.513-1.171-.341-.293-.762-.44-1.262-.44-.537 0-1.043.154-1.52.459-.524.329-.926.786-1.207 1.372l-.128-.585c-.195-.842-.757-1.263-1.684-1.263zm-41.645.018a2.96 2.96 0 0 0-1.739.567 3.05 3.05 0 0 0-1.17 1.702l-.641 2.398c-.013 0-.232.799-.66 2.397-.378 1.428-.567 2.587-.567 3.478 0 2.11.97 3.166 2.91 3.166h.915c2.746 0 4.71-2.215 5.894-6.644l.64-2.397c.025-.061.238-.86.64-2.398.062-.231.092-.451.092-.659 0-.512-.17-.908-.512-1.19-.342-.28-.763-.42-1.263-.42-.598 0-1.153.177-1.666.53a3.09 3.09 0 0 0-1.19 1.63c.05-.196.074-.379.074-.55 0-.512-.17-.908-.512-1.19-.33-.28-.744-.42-1.245-.42zm27.659 0c-.622 0-1.202.189-1.738.567a3.05 3.05 0 0 0-1.172 1.702l-2.452 9.151a2.654 2.654 0 0 0-.092.677c0 .5.171.891.513 1.172.341.28.762.42 1.263.42.622 0 1.201-.188 1.738-.567.586-.427.97-.994 1.153-1.702l2.453-9.15c.073-.232.11-.459.11-.678 0-.5-.171-.89-.513-1.171-.342-.28-.763-.421-1.263-.421z" transform="translate(.954 1.708)"/><path style="font-size:18.3019px;line-height:1.25;font-family:Legothick;-inkscape-font-specification:Legothick;letter-spacing:-.529167px;word-spacing:0;stroke:#000;stroke-width:.5;stroke-dasharray:none" d="M12.945 10.777c-1.782 0-3.221.884-4.32 2.653-.597.976-1.146 2.38-1.646 4.21-.415 1.574-.623 2.806-.623 3.697 0 2.11.97 3.166 2.91 3.166h1.83c.854 0 1.574-.33 2.16-.988.537-.598.805-1.251.805-1.959 0-.476-.146-.866-.439-1.171-.293-.305-.726-.458-1.3-.458.855 0 1.574-.329 2.16-.988.537-.597.806-1.25.806-1.958 0-.476-.147-.867-.44-1.172-.292-.305-.726-.457-1.3-.457.855 0 1.575-.33 2.16-.989.537-.597.806-1.25.806-1.958 0-.475-.146-.866-.44-1.171-.292-.305-.726-.457-1.299-.457zm6.444 0c-.61 0-1.196.201-1.757.604-.586.439-.977 1-1.172 1.683l-2.452 9.151a2.532 2.532 0 0 0-.091.641c0 .512.182.915.548 1.208.33.28.745.42 1.245.42.537 0 1.043-.152 1.52-.457.524-.33.926-.787 1.207-1.373l.128.586c.195.83.757 1.245 1.684 1.245.61 0 1.196-.196 1.757-.586.586-.44.97-1 1.153-1.684l2.453-9.15c.06-.232.091-.452.091-.66 0-.5-.17-.89-.513-1.171-.341-.293-.762-.44-1.263-.44-.536 0-1.042.154-1.518.459-.525.329-.928.786-1.209 1.372l-.128-.585c-.195-.842-.756-1.263-1.683-1.263zm19.787 0c-1.781 0-3.22.884-4.319 2.653-.598.976-1.147 2.38-1.647 4.21-.415 1.574-.623 2.806-.623 3.697 0 2.11.97 3.166 2.91 3.166h.915c1.367 0 2.581-.525 3.643-1.574.817-.818 1.342-1.666 1.574-2.544.06-.22.091-.433.091-.64 0-.513-.17-.91-.512-1.19-.342-.293-.763-.44-1.263-.44-1.086 0-1.94.52-2.563 1.556.025-.415.16-1.092.404-2.031.256-.94.481-1.617.676-2.032.037.513.214.903.531 1.171.317.257.714.385 1.19.385.622 0 1.214-.202 1.775-.604.574-.415.958-.97 1.153-1.665.074-.28.11-.598.11-.952 0-.842-.213-1.544-.64-2.105-.55-.708-1.38-1.061-2.49-1.061zm9.245 0c-1.782 0-3.222.884-4.32 2.653-.598.976-1.147 2.38-1.647 4.21-.415 1.574-.622 2.806-.622 3.697 0 2.11.97 3.166 2.91 3.166h.915c1.781 0 3.22-.884 4.319-2.654.598-.976 1.14-2.379 1.629-4.21.427-1.573.64-2.805.64-3.696 0-2.111-.97-3.166-2.91-3.166zm7.376 0c-.61 0-1.195.201-1.757.604-.585.439-.975 1-1.17 1.683l-2.453 9.151a2.532 2.532 0 0 0-.092.641c0 .512.183.915.55 1.208.329.28.744.42 1.244.42.537 0 1.043-.152 1.519-.457.524-.33.927-.787 1.208-1.373l.128.586c.195.83.756 1.245 1.684 1.245.61 0 1.195-.196 1.757-.586.585-.44.97-1 1.153-1.684l2.452-9.15c.061-.232.092-.452.092-.66 0-.5-.171-.89-.513-1.171-.342-.293-.762-.44-1.262-.44-.537 0-1.044.154-1.52.459-.524.329-.927.786-1.207 1.372l-.129-.585c-.195-.842-.756-1.263-1.684-1.263zm11.167 0c-1.526 0-2.837.664-3.936 1.994-1.024 1.233-1.537 2.569-1.537 4.008 0 .964.28 1.733.842 2.307-.72.183-1.3.549-1.739 1.098-.427.549-.64 1.14-.64 1.775 0 .708.262 1.293.787 1.757.598.525 1.446.787 2.544.787h.915c1.5 0 2.806-.665 3.916-1.995 1.038-1.232 1.556-2.562 1.556-3.99 0-.976-.28-1.75-.842-2.324a3.205 3.205 0 0 0 1.757-1.116c.415-.537.622-1.123.622-1.757 0-.72-.262-1.306-.787-1.757-.598-.525-1.446-.787-2.544-.787zm7.34 0c-.83 0-1.538.317-2.123.952-.574.622-.86 1.287-.86 1.994 0 .867.44 1.391 1.318 1.574l-1.867 6.918a2.654 2.654 0 0 0-.092.677c0 .5.171.891.513 1.172.341.28.763.42 1.263.42.622 0 1.201-.188 1.738-.567.586-.427.97-.994 1.153-1.702l1.867-6.918a2.934 2.934 0 0 0 1.83-1.098c.44-.549.659-1.135.659-1.757 0-.488-.147-.884-.44-1.19-.292-.317-.725-.475-1.299-.475zm9.629 0c-1.22 0-2.282.427-3.185 1.28-.732.696-1.22 1.49-1.464 2.38l-2.087 7.778a2.654 2.654 0 0 0-.091.677c0 .5.17.891.512 1.172.342.28.763.42 1.263.42.622 0 1.202-.188 1.739-.567.585-.427.97-.994 1.152-1.702a2.654 2.654 0 0 0-.091.677c0 .5.171.891.513 1.172.341.28.762.42 1.263.42.622 0 1.201-.188 1.738-.567.586-.427.97-.994 1.153-1.702.232-.842.348-1.604.348-2.288 0-.317-.024-.622-.073-.915.683-.94 1.183-2.098 1.5-3.477a7.565 7.565 0 0 0 .202-1.647c0-1-.262-1.77-.787-2.306-.525-.537-1.27-.805-2.233-.805zm18.835 0c-1.781 0-3.22.884-4.319 2.653-.598.976-1.147 2.38-1.647 4.21-.415 1.574-.623 2.806-.623 3.697 0 2.11.97 3.166 2.91 3.166h.915c1.367 0 2.581-.525 3.643-1.574.817-.818 1.342-1.666 1.574-2.544.06-.22.091-.433.091-.64 0-.513-.17-.91-.512-1.19-.342-.293-.763-.44-1.263-.44-1.086 0-1.94.52-2.563 1.556.025-.415.16-1.092.404-2.031.256-.94.481-1.617.676-2.032.037.513.214.903.531 1.171.317.257.714.385 1.19.385.622 0 1.214-.202 1.775-.604.573-.415.958-.97 1.153-1.665.073-.28.11-.598.11-.952 0-.842-.213-1.544-.64-2.105-.55-.708-1.38-1.061-2.49-1.061zm9.245 0c-1.782 0-3.222.884-4.32 2.653-.598.976-1.147 2.38-1.647 4.21-.415 1.574-.622 2.806-.622 3.697 0 2.11.97 3.166 2.91 3.166h.915c1.366 0 2.58-.525 3.642-1.574.817-.818 1.342-1.666 1.574-2.544.06-.22.091-.433.091-.64 0-.513-.17-.91-.512-1.19-.342-.293-.763-.44-1.263-.44-1.086 0-1.94.52-2.562 1.556.024-.415.158-1.092.402-2.031.257-.94.482-1.617.677-2.032.037.513.214.903.531 1.171.317.257.714.385 1.19.385.622 0 1.214-.202 1.775-.604.574-.415.958-.97 1.153-1.665.073-.28.11-.598.11-.952 0-.842-.213-1.544-.64-2.105-.55-.708-1.38-1.061-2.49-1.061zm14.022 0c-1.781 0-3.222.884-4.32 2.653-.598.976-1.146 2.38-1.647 4.21-.414 1.574-.622 2.806-.622 3.697 0 2.11.97 3.166 2.91 3.166h.915c1.782 0 3.221-.884 4.32-2.654.597-.976 1.14-2.379 1.628-4.21.427-1.573.641-2.805.641-3.696 0-2.111-.97-3.166-2.91-3.166zm7.377 0c-.61 0-1.196.201-1.757.604-.585.439-.976 1-1.171 1.683l-2.453 9.151a2.533 2.533 0 0 0-.091.641c0 .512.183.915.549 1.208.33.28.744.42 1.244.42.537 0 1.043-.152 1.52-.457.524-.33.927-.787 1.207-1.373l.128.586c.196.83.757 1.245 1.684 1.245.61 0 1.196-.196 1.757-.586.586-.44.97-1 1.153-1.684l2.453-9.15c.06-.232.091-.452.091-.66 0-.5-.17-.89-.513-1.171-.341-.293-.762-.44-1.262-.44-.537 0-1.043.154-1.52.459-.524.329-.926.786-1.207 1.372l-.128-.585c-.195-.842-.757-1.263-1.684-1.263zm-41.645.018a2.96 2.96 0 0 0-1.739.567 3.05 3.05 0 0 0-1.17 1.702l-.641 2.398c-.013 0-.232.799-.66 2.397-.378 1.428-.567 2.587-.567 3.478 0 2.11.97 3.166 2.91 3.166h.915c2.746 0 4.71-2.215 5.894-6.644l.64-2.397c.025-.061.238-.86.64-2.398.062-.231.092-.451.092-.659 0-.512-.17-.908-.512-1.19-.342-.28-.763-.42-1.263-.42-.598 0-1.153.177-1.666.53a3.09 3.09 0 0 0-1.19 1.63c.05-.196.074-.379.074-.55 0-.512-.17-.908-.512-1.19-.33-.28-.744-.42-1.245-.42zm27.659 0c-.622 0-1.202.189-1.738.567a3.05 3.05 0 0 0-1.172 1.702l-2.452 9.151a2.654 2.654 0 0 0-.092.677c0 .5.171.891.513 1.172.341.28.762.42 1.263.42.622 0 1.201-.188 1.738-.567.586-.427.97-.994 1.153-1.702l2.453-9.15c.073-.232.11-.459.11-.678 0-.5-.171-.89-.513-1.171-.342-.28-.763-.421-1.263-.421zm-106.72.897h1.831c.696 0 1.043.323 1.043.97 0 .427-.17.83-.512 1.207a1.655 1.655 0 0 1-1.281.568h-.897c-.452 0-.775.067-.97.201-.293.208-.555.678-.787 1.41l-.018.036c-.037.11.012.171.146.183h2.05c.696 0 1.043.324 1.043.97 0 .427-.17.83-.512 1.208a1.655 1.655 0 0 1-1.281.567h-2.014c-.146.013-.232.073-.256.183l-.018.037c-.073.354-.11.64-.11.86 0 .342.098.562.293.66.122.06.36.09.714.09h.915c.695 0 1.043.324 1.043.97 0 .428-.17.83-.513 1.208a1.655 1.655 0 0 1-1.28.568H9.503c-1.464 0-2.196-.824-2.196-2.47 0-.843.195-2.002.585-3.478.513-1.88 1.08-3.27 1.703-4.173.817-1.184 1.854-1.775 3.11-1.775zm6.426 0c.562 0 .897.256 1.007.768l.86 3.642c.013.05.037.067.073.055a.11.11 0 0 0 .074-.073l.805-3.02a1.86 1.86 0 0 1 .714-1.024c.317-.22.659-.33 1.025-.33.72 0 1.08.317 1.08.952 0 .122-.025.256-.074.402l-2.452 9.151a1.8 1.8 0 0 1-.677 1.007c-.342.244-.696.366-1.062.366-.561 0-.897-.256-1.007-.769l-.86-3.642c-.012-.06-.036-.079-.073-.055-.049.013-.073.037-.073.073l-.806 3.02a1.806 1.806 0 0 1-.695 1.007c-.33.232-.677.348-1.043.348-.72 0-1.08-.318-1.08-.952 0-.122.025-.256.073-.403l2.434-9.15c.122-.415.354-.745.696-.99.342-.255.695-.383 1.061-.383zm19.806 0h.916c1.61 0 2.415.836 2.415 2.507 0 .28-.024.513-.073.696a1.804 1.804 0 0 1-.695 1.006c-.33.232-.678.348-1.044.348-.707 0-1.061-.317-1.061-.952 0-.073.012-.165.036-.275.025-.122.037-.207.037-.255 0-.196-.226-.306-.677-.33-.403.024-.72.213-.952.567-.293.452-.616 1.33-.97 2.636-.292 1.134-.439 1.934-.439 2.398 0 .5.213.768.64.805.525-.025.824-.178.897-.458a1.86 1.86 0 0 1 .714-1.025c.317-.22.659-.33 1.025-.33.708 0 1.061.318 1.061.952 0 .122-.018.256-.054.403-.147.561-.495 1.153-1.044 1.775-.842.952-1.848 1.428-3.02 1.428h-.914c-1.465 0-2.197-.824-2.197-2.47 0-.843.195-2.002.586-3.478.512-1.88 1.08-3.27 1.702-4.173.817-1.184 1.855-1.775 3.111-1.775zm9.244 0h.915c1.465 0 2.197.823 2.197 2.47 0 .842-.202 2.001-.604 3.478-.5 1.879-1.062 3.27-1.684 4.173-.817 1.183-1.855 1.775-3.111 1.775h-.916c-1.464 0-2.196-.824-2.196-2.47 0-.843.196-2.002.586-3.478.513-1.88 1.08-3.27 1.702-4.173.817-1.184 1.855-1.775 3.111-1.775zm7.36 0c.56 0 .896.256 1.006.768l.86 3.642c.012.05.037.067.073.055a.109.109 0 0 0 .073-.073l.806-3.02a1.86 1.86 0 0 1 .714-1.024c.317-.22.658-.33 1.024-.33.72 0 1.08.317 1.08.952 0 .122-.024.256-.073.402l-2.453 9.151a1.8 1.8 0 0 1-.677 1.007c-.341.244-.695.366-1.06.366-.562 0-.898-.256-1.008-.769l-.86-3.642c-.012-.06-.036-.079-.073-.055-.049.013-.073.037-.073.073l-.805 3.02a1.806 1.806 0 0 1-.696 1.007c-.33.232-.677.348-1.043.348-.72 0-1.08-.318-1.08-.952 0-.122.024-.256.073-.403l2.435-9.15c.122-.415.353-.745.695-.99.341-.255.696-.383 1.062-.383zm11.183 0h.916c.878 0 1.55.189 2.013.567.403.33.603.75.603 1.263 0 .476-.17.903-.512 1.28-.33.367-.75.55-1.263.55-.402 0-.689-.152-.86-.457-.158-.305-.433-.458-.823-.458-.379 0-.653.043-.824.128-.244.122-.458.384-.64.787-.037.415.048.683.256.805.122.073.409.11.86.11.756.012 1.324.25 1.702.714.378.451.567 1.031.567 1.739 0 1.159-.396 2.238-1.19 3.239-.854 1.086-1.884 1.629-3.092 1.629h-.916c-.878 0-1.55-.19-2.013-.568-.403-.341-.603-.762-.603-1.262 0-.476.164-.897.494-1.263a1.655 1.655 0 0 1 1.28-.568c.415 0 .696.153.842.458.147.305.41.458.787.458.415 0 .708-.043.879-.128.244-.122.458-.385.64-.788.037-.414-.048-.683-.256-.805-.122-.073-.409-.11-.86-.11-.756-.012-1.33-.256-1.72-.731-.366-.44-.55-1.014-.55-1.721 0-1.16.397-2.239 1.19-3.24.855-1.085 1.885-1.628 3.093-1.628zm7.341 0h3.66c.696 0 1.044.323 1.044.97 0 .427-.171.83-.513 1.207a1.654 1.654 0 0 1-1.281.568c-.305 0-.482.11-.53.33l-2.014 7.448a1.72 1.72 0 0 1-.677 1.007c-.33.232-.677.348-1.043.348-.72 0-1.08-.318-1.08-.952 0-.122.018-.256.055-.403l2.013-7.448c.049-.22-.08-.33-.384-.33-.696 0-1.044-.323-1.044-.97 0-.427.171-.83.513-1.208a1.655 1.655 0 0 1 1.281-.567zm9.628 0h1.373c1.562 0 2.343.811 2.343 2.434 0 .463-.073.951-.22 1.464l-.238.915c-.22.793-.616 1.562-1.19 2.306a.542.542 0 0 0-.11.42c.074.27.11.569.11.898 0 .61-.11 1.305-.329 2.086-.11.427-.336.763-.677 1.007-.33.232-.677.348-1.043.348-.72 0-1.08-.318-1.08-.952 0-.122.018-.256.055-.403.134-.488.201-.866.201-1.135 0-.317-.098-.518-.293-.603-.122-.061-.384-.092-.787-.092-.305 0-.482.11-.53.33l-.421 1.5c-.11.427-.336.763-.678 1.007-.33.232-.676.348-1.042.348-.72 0-1.08-.318-1.08-.952 0-.122.018-.256.054-.403l2.087-7.778c.464-1.696 1.629-2.611 3.495-2.745zm18.836 0h.916c1.61 0 2.415.836 2.415 2.507 0 .28-.024.513-.073.696a1.804 1.804 0 0 1-.696 1.006c-.329.232-.677.348-1.043.348-.708 0-1.061-.317-1.061-.952 0-.073.012-.165.036-.275.025-.122.037-.207.037-.255 0-.196-.226-.306-.677-.33-.403.024-.72.213-.952.567-.293.452-.616 1.33-.97 2.636-.293 1.134-.439 1.934-.439 2.398 0 .5.213.768.64.805.525-.025.824-.178.897-.458a1.86 1.86 0 0 1 .714-1.025c.317-.22.659-.33 1.025-.33.707 0 1.061.318 1.061.952 0 .122-.018.256-.055.403-.146.561-.494 1.153-1.043 1.775-.842.952-1.848 1.428-3.02 1.428h-.915c-1.464 0-2.196-.824-2.196-2.47 0-.843.195-2.002.586-3.478.512-1.88 1.08-3.27 1.702-4.173.817-1.184 1.855-1.775 3.111-1.775zm9.244 0h.915c1.611 0 2.416.836 2.416 2.507 0 .28-.024.513-.073.696a1.805 1.805 0 0 1-.696 1.006c-.33.232-.676.348-1.042.348-.708 0-1.062-.317-1.062-.952 0-.073.012-.165.036-.275.025-.122.037-.207.037-.255 0-.196-.225-.306-.677-.33-.403.024-.72.213-.952.567-.293.452-.616 1.33-.97 2.636-.293 1.134-.439 1.934-.439 2.398 0 .5.214.768.64.805.525-.025.824-.178.897-.458a1.86 1.86 0 0 1 .714-1.025c.317-.22.66-.33 1.025-.33.708 0 1.062.318 1.062.952 0 .122-.019.256-.055.403-.147.561-.494 1.153-1.043 1.775-.842.952-1.85 1.428-3.02 1.428h-.916c-1.464 0-2.196-.824-2.196-2.47 0-.843.196-2.002.586-3.478.513-1.88 1.08-3.27 1.702-4.173.817-1.184 1.855-1.775 3.111-1.775zm14.023 0h.915c1.464 0 2.196.823 2.196 2.47 0 .842-.201 2.001-.604 3.478-.5 1.879-1.061 3.27-1.684 4.173-.817 1.183-1.854 1.775-3.111 1.775h-.915c-1.464 0-2.196-.824-2.196-2.47 0-.843.195-2.002.586-3.478.512-1.88 1.079-3.27 1.701-4.173.818-1.184 1.855-1.775 3.112-1.775zm7.359 0c.561 0 .897.256 1.007.768l.86 3.642c.012.05.036.067.073.055a.11.11 0 0 0 .073-.073l.805-3.02a1.86 1.86 0 0 1 .714-1.024c.317-.22.659-.33 1.025-.33.72 0 1.08.317 1.08.952 0 .122-.025.256-.074.402l-2.452 9.151a1.8 1.8 0 0 1-.677 1.007c-.342.244-.695.366-1.062.366-.56 0-.896-.256-1.006-.769l-.86-3.642c-.013-.06-.037-.079-.073-.055-.05.013-.074.037-.074.073l-.805 3.02a1.806 1.806 0 0 1-.696 1.007c-.329.232-.677.348-1.043.348-.72 0-1.08-.318-1.08-.952 0-.122.025-.256.073-.403l2.435-9.15c.122-.415.354-.745.696-.99.341-.255.695-.383 1.06-.383zm-41.645.018c.708 0 1.061.317 1.061.952 0 .122-.018.256-.054.402l-.623 2.325c-.012 0-.226.775-.64 2.324-.281 1.074-.421 1.842-.421 2.306 0 .476.17.744.512.805.342-.049.622-.262.842-.64.28-.452.58-1.275.897-2.47l.622-2.325c.037-.134.244-.91.622-2.325a1.773 1.773 0 0 1 1.74-1.354c.707 0 1.06.317 1.06.952 0 .122-.018.256-.054.402l-.623 2.325c-.012.073-.22.854-.622 2.342-.488 1.843-1.05 3.215-1.684 4.118-.805 1.16-1.836 1.739-3.092 1.739h-.916c-1.464 0-2.196-.824-2.196-2.47 0-.83.19-1.96.567-3.387l.64-2.342.623-2.325a1.86 1.86 0 0 1 .714-1.024c.317-.22.659-.33 1.025-.33zm27.659 0c.72 0 1.08.317 1.08.952 0 .122-.025.256-.074.402l-2.452 9.151c-.11.427-.336.763-.677 1.007-.33.232-.678.348-1.044.348-.72 0-1.08-.318-1.08-.952 0-.122.02-.256.056-.403l2.452-9.15a1.86 1.86 0 0 1 .714-1.025c.317-.22.659-.33 1.025-.33zm-35.293 2.709c-.232 0-.47.097-.713.292-.244.183-.397.397-.458.641l-.53 1.958c-.061.22.06.33.365.33.513 0 .867-.068 1.062-.202.305-.207.555-.677.75-1.409.086-.305.128-.573.128-.805 0-.537-.201-.805-.604-.805zm-35.988.036c-.341.05-.628.269-.86.66-.268.45-.573 1.292-.915 2.525-.293 1.134-.439 1.934-.439 2.398 0 .463.171.725.513.786.341-.049.628-.268.86-.659.268-.451.567-1.293.897-2.525.305-1.135.457-1.934.457-2.398 0-.464-.171-.726-.513-.787zm77.615 0c-.341.05-.628.269-.86.66-.269.45-.574 1.292-.915 2.525-.293 1.134-.44 1.934-.44 2.398 0 .463.171.725.513.786.342-.049.628-.268.86-.659.268-.451.568-1.293.897-2.525.305-1.135.457-1.934.457-2.398 0-.464-.17-.726-.512-.787z" transform="translate(.954 1.708)"/><path style="font-style:italic;font-size:13.3842px;line-height:1.25;font-family:Legothick;-inkscape-font-specification:'Legothick Italic';letter-spacing:0;word-spacing:0;fill:#ff0;fill-opacity:1;stroke-width:.418256" d="M150.883 5.053c-1.424.02-2.747.96-3.336 2.238-1.761.961-2.527 3.727-.938 5.182 1.844 1.462 4.614.576 5.99-1.112a6.227 6.227 0 0 0 1.169-4.216c-.288-1.278-1.6-2.17-2.885-2.092z" transform="translate(-20.907 -1.24)"/><path style="font-style:italic;font-size:13.3842px;line-height:1.25;font-family:Legothick;-inkscape-font-specification:'Legothick Italic';letter-spacing:0;word-spacing:0;fill:#fff;stroke-width:.418256" d="M150.936 6.637c-.446 0-.86.147-1.244.442-.429.321-.723.772-.884 1.352-.758.294-1.235.807-1.432 1.539a2.103 2.103 0 0 0-.067.509c0 .374.13.66.388.856.26.196.599.294 1.018.294.642 0 1.267-.196 1.874-.589.669-.428 1.101-.985 1.298-1.672V9.34l.28-1.044c.054-.17.081-.33.081-.482 0-.366-.13-.66-.388-.884-.241-.196-.549-.294-.924-.294z" transform="translate(-20.907 -1.24)"/><path d="M151.217 9.34q-.187.723-.936 1.192-.683.441-1.392.441-.884 0-.884-.695 0-.148.04-.308.107-.375.429-.656.32-.281.709-.335.16-.027.2-.187l.135-.495q.12-.469.508-.75.348-.24.75-.24.776 0 .776.695 0 .134-.054.295zm-2.409-.91q-1.137.442-1.432 1.54-.067.267-.067.508 0 .562.388.857.389.294 1.018.294.963 0 1.873-.589 1.004-.642 1.299-1.673v-.026l.28-1.044q.081-.255.081-.482 0-.549-.388-.884-.361-.294-.924-.294-.669 0-1.244.442-.643.482-.884 1.351z" style="font-style:italic;font-size:13.3842px;line-height:1.25;font-family:Legothick;-inkscape-font-specification:'Legothick Italic';letter-spacing:0;word-spacing:0;fill:#000;stroke:#000;stroke-width:.718;stroke-dasharray:none;stroke-opacity:1" transform="translate(-20.907 -1.24)"/></svg>