<svg width="222.282" height="89.476" viewBox="0 0 58.812 23.674" xmlns="http://www.w3.org/2000/svg"><g style="fill:#000"><path style="fill:#000;fill-opacity:1;fill-rule:nonzero;stroke:none;stroke-width:.375166" d="M108.445 62.378c-.181 0-.364.047-.546.14-.546.277-.479.74-.34 1.156l.01.019c.197.251.402.304.54.304.245 0 .422-.167.434-.323.004-.057-.01-.248-.344-.296-.069-.01-.115-.04-.136-.087-.026-.058-.013-.143.027-.206a.497.497 0 0 1 .348-.159c.114 0 .267.052.349.3.163.5.186 1.063.208 1.608.014.345.029.702.079 1.037a1.311 1.311 0 0 1-.037.135c-.008.028-.018.056-.03.102l-.838-.076.435 1.05h-.766l.485.897-.783.376c-.184-.462-.379-.929-.567-1.38-.393-.946-.799-1.923-1.134-2.907-.187-.549-.358-.783-.573-.783-.098 0-.188.05-.275.098l-.066.037-.017.013c-.052.058-.092.125-.13.19a1.298 1.298 0 0 1-.102.152h-.367l-.015.002c-.15.04-.248.11-.291.211-.051.118-.027.265.077.456l2.854 4.284-.306.583-.346-.311-.04.044c-.067.072-.12.135-.174.198-.045.052-.089.104-.141.162-.058-.024-.121-.046-.183-.068-.072-.026-.148-.052-.211-.08l-.06-.028-.021.062c-.042.125-.078.222-.113.318-.03.085-.062.17-.097.273a13.976 13.976 0 0 0-.772-.086c-.266-.025-.54-.05-.798-.09-.181-.142-.175-.34-.134-.486.068-.098.113-.105.125-.105.006 0 .017 0 .03.015.038.038.061.127.06.227-.001.048.016.091.049.125a.26.26 0 0 0 .187.069c.122 0 .262-.07.282-.223a.78.78 0 0 0-.165-.612.503.503 0 0 0-.532-.156.756.756 0 0 0-.488.442c-.075.186-.114.495.13.905.215.363.819.567 1.845.624.116.006.12.167.119.217-.004.137-.06.224-.09.224l-.015-.006-1.561.11-.023.005c-.67.347-.627.716-.589 1.042.011.092.021.18.017.267l-.001.028.021.02c.202.181.378.27.54.27.179 0 .33-.108.445-.313.119-.143.15-.314.083-.456-.048-.102-.138-.17-.23-.17-.047 0-.202.023-.213.308-.003.078-.062.113-.11.06l-.013-.01c-.112-.068-.107-.228-.103-.276.01-.118.06-.198.093-.21.187-.07.41-.103.698-.103.186 0 .38.013.568.026.142.01.287.02.427.025.023.102.038.205.052.306.017.12.035.245.066.368l.006.028.026.012c.083.04.2-.004.305-.053.08-.035.164-.072.204-.053.037.017.076.122.105.2.044.116.086.228.167.265l.03.015.028-.018c.065-.042.138-.084.21-.126l.142-.084c.067.224.168.45.318.719l-2.9 2.228c-.272.156-.41.309-.42.468-.015.204.18.353.335.472.052.04.102.078.132.11.026.13.1.454.339.454.135 0 .292-.109.478-.331l2.353-2.473.017-.018c.409.057.825.39 1.228.713l.108.085c-.064.142-.13.294-.193.441l-.197.45-.01.02.022.003c.076.011.187-.002.292-.016a1.66 1.66 0 0 1 .22-.022c.12 0 .189.033.22.107a8.165 8.165 0 0 1-.232.444c-.081.148-.166.3-.234.446l-.01.022h.023c.12.005.247 0 .37-.003a7.294 7.294 0 0 1 .366-.003c.142.039.164.15.157.343-.032.236-.056.479-.078.713-.064.639-.129 1.299-.359 1.906l-.028.076c-.055.157-.095.27-.272.27a.886.886 0 0 1-.248-.046c-.155-.047-.207-.183-.224-.26-.033-.145 0-.315.072-.382.014-.013.034-.02.063-.02.026 0 .056.006.087.012.045.007.092.015.135.01a.116.116 0 0 0 .104-.082.24.24 0 0 0-.047-.216c-.043-.066-.139-.104-.257-.104a.436.436 0 0 0-.27.082c-.382.314-.386.594-.322.772.112.314.517.532.81.532.064 0 .121-.01.169-.03.403-.172.632-.33.69-.672.143-.858.298-1.834.321-2.565.003-.115.127-.228.248-.228.14 0 .24.144.274.394.035.256.062.534.087.802.035.365.07.74.128 1.083.121.725.41 1.126.837 1.16.557.044.886-.145.972-.559.086-.407-.127-.702-.585-.81a.272.272 0 0 0-.064-.007c-.121 0-.228.075-.242.171-.01.06.008.215.38.331.1.031.101.133.092.19-.028.192-.216.414-.415.414-.14 0-.27-.107-.375-.31-.294-.563-.363-1.215-.43-1.846-.016-.15-.033-.306-.052-.458-.027-.209-.045-.463.055-.577.038-.043.089-.064.157-.064l.044.003.573.028h.023l-.007-.02a2.601 2.601 0 0 0-.143-.338c-.102-.212-.206-.43-.185-.682.088-.01.207-.004.316.003.068.005.138.01.205.01.05 0 .093-.002.133-.007l.02-.003-.007-.02a72.272 72.272 0 0 1-.19-.41l-.175-.381c-.03-.126.179-.207.4-.294.14-.054.284-.11.384-.184.24.545.473 1.09.697 1.618.468 1.098.909 2.135 1.438 3.211.047.098.124.151.216.151.11 0 .22-.074.302-.203.1-.158.206-.3.4-.3.024 0 .05.001.075.005.206.033.37-.015.431-.125.044-.078.032-.177-.033-.28-.595-.959-1.277-1.882-1.937-2.775-.279-.378-.568-.77-.847-1.158-.13-.182-.265-.369-.217-.53l.425-.639c.05.048.085.124.119.197.056.121.109.236.224.215.14-.024.202-.23.25-.396.014-.047.027-.092.04-.128l.466.192.005-.017c.029-.089.068-.234.11-.388.022-.086.046-.175.069-.257l.35.038c.647.07 1.258.134 1.388.225.195.136.195.356.137.641-.05.103-.129.165-.211.165a.151.151 0 0 1-.118-.056c-.04-.048-.055-.12-.04-.203a.21.21 0 0 0-.043-.176.164.164 0 0 0-.12-.062.103.103 0 0 0-.083.04c-.026.03-.05.094-.024.22-.03.23.07.483.211.532.245.086.441.045.567-.116.146-.185.184-.513.1-.856-.117-.599-.975-.683-1.805-.763l-.138-.013c-.13-.234-.097-.445-.052-.625a9.812 9.812 0 0 1 .522-.003h.202c.248 0 .517-.006.81-.048.358-.053.615-.334.687-.752.04-.235-.003-.441-.121-.582a.456.456 0 0 0-.348-.165c-.18 0-.346.112-.44.298-.065.124-.069.255-.01.35.033.056.083.09.132.09.06 0 .105-.047.124-.128.03-.125.13-.3.228-.3.025 0 .049.013.071.036.107.11.14.265.091.423-.046.15-.16.273-.277.297-.208.044-.43.064-.694.064-.139 0-.28-.005-.416-.01-.17-.006-.346-.013-.526-.01-.037-.117-.047-.22-.058-.319a1.487 1.487 0 0 0-.063-.335l-.003-.01-.01-.001a.37.37 0 0 0-.048-.003.745.745 0 0 0-.233.051.618.618 0 0 1-.255.049c-.024-.074-.072-.193-.118-.309-.047-.119-.096-.242-.119-.314l-.006-.021-.017.013c-.05.036-.093.116-.137.201-.041.078-.084.158-.128.19-.025.018-.061 0-.097-.019-.036-.02-.075-.039-.11-.027-.129-.47-.183-.599-.341-.8.51-.354 1.004-.769 1.481-1.17.51-.43 1.039-.873 1.588-1.243.195-.131.302-.283.295-.416-.005-.096-.068-.176-.188-.24a2.958 2.958 0 0 0-.067-.034c-.156-.079-.25-.126-.307-.337-.056-.212-.151-.257-.221-.257-.074 0-.156.047-.243.14-.374.404-.754.82-1.12 1.222-.37.405-.746.818-1.126 1.226l-.007-.003c-.273-.121-.537-.245-.793-.364-.235-.11-.471-.22-.717-.33.061-.139.114-.278.165-.413.058-.153.117-.312.189-.467l.04-.085h-.094c-.132 0-.243-.003-.355-.007-.085-.002-.171-.005-.265-.006.06-.136.11-.27.159-.401.056-.154.115-.312.19-.47l.034-.07-.076-.015a1.551 1.551 0 0 0-.394-.02c-.108.005-.22.007-.319-.009-.052-.829.108-1.686.25-2.444l.008-.046c.074-.395.246-.63.46-.63.11 0 .215.064.275.168.065.113.045.211-.062.3-.16-.096-.303-.075-.37.042-.057.1-.048.253.021.373.114.198.352.255.614.133.427-.198.536-.573.323-1.115-.09-.231-.438-.412-.792-.412-.238 0-.81.088-.982.902-.103.49-.157.983-.209 1.46-.04.366-.08.744-.144 1.12a1.299 1.299 0 0 0-.11-.004h-.145c-.033 0-.071 0-.105-.002-.035-.33-.039-.675-.042-1.008-.006-.605-.014-1.23-.201-1.801-.138-.42-.47-.671-.887-.671zm0 .12c.363 0 .652.22.773.588.181.554.188 1.17.194 1.765.004.353.007.718.049 1.067l.005.043.043.008c.05.011.115.012.17.012l.145-.001c.047 0 .107 0 .148.01l.06.012.01-.06c.071-.4.114-.799.156-1.185.052-.474.105-.965.208-1.449.154-.727.655-.806.864-.806.34 0 .617.174.68.335.189.48.102.795-.263.964a.515.515 0 0 1-.215.054.27.27 0 0 1-.243-.139c-.048-.084-.057-.19-.021-.253a.082.082 0 0 1 .076-.044c.03 0 .082.011.16.064l.034.024.034-.024c.183-.13.23-.305.128-.481a.444.444 0 0 0-.378-.23c-.104 0-.453.053-.578.729l-.01.046c-.144.779-.309 1.662-.247 2.52l.003.046.044.009c.124.026.26.026.394.02.098-.005.2-.008.29.004a6.2 6.2 0 0 0-.163.41 5.194 5.194 0 0 1-.193.475l-.042.087h.096c.13 0 .243.003.355.006.085.002.17.005.265.006-.057.131-.106.263-.154.39a7.155 7.155 0 0 1-.187.46l-.025.056.055.024c.266.118.518.236.77.354.234.11.475.221.724.333-.156.168-.315.335-.472.5-.358-.333-.758-.593-1.133-.736-.15-.488-.424-.778-.736-.778-.279 0-.522.23-.652.614-.047.139-.032.283-.018.423.005.054.012.105.014.156-.696.281-1.038.705-1.17 1.45-.054.01-.115.012-.178.014-.168.006-.357.013-.484.15-.1.11-.143.283-.132.531.017.386.217.565.63.565.062 0 .131-.004.208-.011.033.095.062.215.09.332.035.139.07.283.117.4.312.542.813.866 1.339.866.175 0 .346-.035.51-.106.29-.125.502-.337.61-.612a1.27 1.27 0 0 0-.033-.97c-.09-.204-.206-.303-.355-.303-.14 0-.3.09-.505.284-.093.089-.187.135-.273.135-.23 0-.383-.325-.39-.829-.003-.236.068-.434.204-.572.193-.196.525-.267.87-.188.78.18 1.234.681 1.427 1.578l.019.086.073-.048c.204-.137.416-.076.531.14.096.181.133.502-.063.828a.355.355 0 0 0-.16-.037c-.326 0-.672.404-.833.785-.194.46-.536.655-.898.861l-.149.087.057.344c-.26.372-.48.531-.739.531a.785.785 0 0 1-.115-.009 5.98 5.98 0 0 1-.092-.269c-.035-.106-.07-.217-.109-.316-.058-.148-.223-.15-.369-.15-.095-.002-.194-.003-.255-.041l-1.47-.94-.057-.01-.033.033.031.031-.004.004-.043-.02-.024.027.027.035-.004.004-.038-.024.027.035-.004.004-.037-.025-.03.033.026.036-.004.004-.036-.026-.01.009.032.03-.002.004-.038-.025.026.036-.004.004-.037-.025-.01.01.033.03-.003.003-.043-.019-.023.025.026.036-.004.004-.037-.024-.03.032.031.03-.003.004-.042-.02-.018.018v.021l-.014-.005-.024.026.027.034-.003.003-.036-.025-.01.011.032.03-.003.002-.04-.021-.02.021.032.03-.003.003-.042-.019-.024.025.027.036-.004.005-.037-.025-.024.025.027.036-.004.004-.038-.024.027.036-.004.004-.038-.025-2.363 2.483c-.202.242-.323.292-.39.292-.124 0-.19-.203-.224-.373l-.003-.015-.01-.011a1.013 1.013 0 0 0-.16-.14c-.133-.102-.3-.229-.29-.369.008-.114.13-.24.368-.376l2.99-2.297-.026-.045a3.39 3.39 0 0 1-.354-.813l-.021-.079-.07.044c-.064.041-.134.082-.205.123-.061.035-.122.07-.179.106-.03-.038-.06-.119-.083-.18-.044-.118-.086-.228-.166-.267-.084-.039-.2.005-.306.053a.503.503 0 0 1-.18.059c-.025-.107-.04-.216-.055-.322a3.563 3.563 0 0 0-.064-.363l-.011-.044-.046-.002a9.405 9.405 0 0 1-.468-.025c-.19-.013-.387-.026-.577-.026-.304 0-.538.035-.74.11-.101.039-.158.184-.17.312-.015.17.042.312.153.383.039.04.085.061.134.061.084 0 .172-.07.177-.203.005-.118.041-.192.095-.192.044 0 .094.042.121.1.023.048.06.175-.073.338-.192.338-.439.343-.786.039a2.034 2.034 0 0 0-.018-.258c-.039-.327-.072-.61.513-.915l1.52-.106a.144.144 0 0 0 .041.007c.126 0 .2-.177.204-.343.005-.199-.086-.332-.233-.34-.969-.054-1.557-.244-1.748-.566-.219-.368-.186-.638-.122-.8a.634.634 0 0 1 .41-.37c.159-.044.304-.001.41.12.11.125.161.323.136.516-.013.095-.109.12-.163.12-.043 0-.082-.013-.102-.033a.052.052 0 0 1-.015-.04c.002-.137-.032-.25-.093-.313a.162.162 0 0 0-.116-.051c-.078 0-.155.055-.23.165l-.01.017c-.076.264-.01.489.189.634l.012.008.014.002c.265.042.547.069.82.094.272.025.552.051.814.093l.05.009.016-.049c.042-.125.077-.22.112-.317.03-.08.06-.161.093-.259l.16.06c.073.025.15.052.213.081l.04.018.03-.032c.066-.073.119-.135.172-.198a8.62 8.62 0 0 1 .131-.15l.372.335.412-.783-2.892-4.34c-.08-.148-.104-.265-.07-.345.028-.064.097-.112.205-.141h.414l.017-.02c.052-.059.093-.126.132-.191.036-.06.07-.116.11-.163l.06-.033c.077-.043.15-.083.217-.083.148 0 .298.23.459.701.336.988.743 1.968 1.137 2.915.196.47.398.957.589 1.438l.023.06 1.014-.487-.45-.83h.744l-.427-1.033.744.068.011-.052c.018-.074.029-.108.04-.142.012-.038.024-.075.042-.156l.002-.011v-.01a9.557 9.557 0 0 1-.08-1.038c-.022-.553-.046-1.125-.214-1.64-.08-.243-.249-.382-.463-.382a.616.616 0 0 0-.442.205.352.352 0 0 0-.042.33c.027.06.088.135.228.155.157.023.247.086.241.169-.007.1-.143.212-.314.212-.11 0-.274-.043-.44-.25-.173-.53-.093-.81.284-1.003.165-.084.33-.126.492-.126z" transform="translate(-102.863 -62.378)"/><g aria-label="CANCÚN, QUINTANA ROO, MÉXICO" style="font-weight:600;font-stretch:semi-expanded;font-size:1.45171px;line-height:1.25;font-family:'Goudy Old Style';-inkscape-font-specification:'Goudy Old Style Semi-Bold Semi-Expanded';letter-spacing:0;word-spacing:0;stroke-width:.120974"><path d="M36.289 19.676q.122 0 .213.061l.043.03q.013.009.023.009.013 0 .02-.012l.013-.024q.004-.006.012-.006.02 0 .02.05l.001.056v.07l.006.058.005.035q.004.025.004.045 0 .03-.018.03-.01 0-.014-.019-.006-.029-.037-.089-.03-.06-.058-.096-.114-.145-.253-.145-.123 0-.2.12-.077.12-.077.31 0 .25.126.398.094.111.206.111.066 0 .14-.037.073-.037.116-.093l.042-.054q.01-.013.018-.014.012 0 .012.017 0 .032-.051.101-.135.18-.334.18-.192 0-.312-.144-.119-.145-.119-.377 0-.127.045-.249.045-.121.12-.197.123-.125.288-.125zM37.157 19.781l.297.805q.022.06.052.09t.078.04q.012.003.012.022 0 .021-.015.02-.008 0-.025-.004-.05-.013-.162-.013t-.152.011q-.01.003-.017.003-.019 0-.019-.021 0-.011.015-.016.031-.011.051-.039.021-.028.021-.058 0-.044-.056-.19-.018-.045-.04-.05-.02-.008-.15-.008h-.088l-.06.013q-.023.013-.054.101l-.02.06q-.01.025-.01.051 0 .097.115.113.025.003.025.022-.001.02-.024.02-.012 0-.033-.005-.043-.01-.077-.01-.03 0-.1.008-.05.006-.063.006-.018 0-.018-.018 0-.016.018-.023.036-.013.057-.048.021-.036.063-.148l.178-.485.03-.08.06-.146.032-.073v.002l.01-.028q.01-.03.018-.03.01 0 .036.065zm.025.482-.085-.235q-.031-.085-.044-.085-.008 0-.029.055l-.012.032-.077.206-.007.019q-.005.011-.005.02 0 .026.047.026h.194q.024 0 .024-.016l-.003-.013zM37.965 19.87l.345.457.023.03q.044.058.059.058.014 0 .015-.047.005-.17.005-.324 0-.181-.03-.245-.032-.064-.122-.072-.022-.001-.022-.017 0-.02.02-.02.023 0 .075.007.034.005.056.005.045 0 .143-.015l.019-.001q.02 0 .02.021 0 .02-.02.024-.084.018-.084.176v.038l-.01.48-.002.067-.001.086v.058l.003.096q0 .022-.013.021-.011 0-.024-.017l-.594-.778q-.016-.02-.022-.02-.015 0-.015.034l-.001.023v.298q0 .24.02.32.022.087.127.099.02.002.02.019 0 .023-.02.023l-.026-.003q-.054-.01-.12-.01-.067 0-.118.01-.023.005-.034.005-.017 0-.017-.018 0-.016.019-.022.047-.016.069-.066.022-.05.022-.145l.005-.184v-.334q0-.237-.148-.25-.02 0-.02-.019 0-.021.021-.021l.046.002h.027q.05 0 .109-.008l.036-.002q.02 0 .032.01t.05.064l.044.062.032.045zM39.091 19.676q.122 0 .213.061l.043.03q.013.009.024.009.013 0 .02-.012l.013-.024q.004-.006.012-.006.02 0 .02.05v.126l.006.058.006.035q.003.025.003.045 0 .03-.018.03-.01 0-.014-.019-.005-.029-.036-.089-.03-.06-.059-.096-.113-.145-.252-.145-.124 0-.2.12-.078.12-.078.31 0 .25.126.398.095.111.207.111.065 0 .14-.037.073-.037.115-.093l.043-.054q.009-.013.017-.014.013 0 .013.017 0 .032-.052.101-.135.18-.333.18-.192 0-.312-.144-.12-.145-.12-.377 0-.127.045-.249.046-.121.12-.197.124-.125.288-.125zM40.223 19.687q.004-.001.015.002.01.002.051.005l.07.003.064-.003.057-.007.022-.001q.017 0 .017.02 0 .015-.016.018l-.025.006q-.05.01-.05.128v.067l-.001.095q0 .223-.02.359-.017.136-.058.21-.099.18-.335.18-.166 0-.258-.074-.125-.101-.125-.392l.008-.298-.002-.14q0-.052-.01-.074-.008-.021-.035-.037-.032-.017-.072-.024-.025-.005-.025-.023 0-.02.022-.02l.027.002q.082.01.128.01.063 0 .141-.01l.045-.002q.034 0 .034.022 0 .012-.005.017-.006.005-.025.01-.04.008-.054.035-.013.025-.017.1l-.01.194v.136q0 .186.017.266.017.078.07.134.078.086.202.086.126 0 .203-.088.052-.06.074-.173.022-.114.022-.327v-.063l-.004-.158q-.003-.071-.037-.11-.034-.04-.092-.04-.026 0-.026-.023 0-.018.013-.018zm-.116-.322.015.001q.032.004.054.004.035 0 .035.029 0 .013-.006.022-.007.01-.045.051l-.06.067-.03.032q-.013.013-.028.02-.034.016-.038.02-.014.006-.024.007-.017.002-.016-.018 0-.007.01-.02l.018-.034.068-.124.02-.036q.011-.02.027-.02zM40.945 19.87l.346.457.022.03q.045.058.06.058.013 0 .015-.047.005-.17.005-.324 0-.181-.031-.245-.03-.064-.122-.072-.021-.001-.021-.017 0-.02.019-.02.023 0 .076.007.033.005.056.005.045 0 .143-.015l.019-.001q.02 0 .02.021 0 .02-.02.024-.085.018-.085.176v.038l-.009.48-.003.067v.144l.003.096q0 .022-.013.021-.012 0-.024-.017l-.595-.778q-.015-.02-.021-.02-.016 0-.016.034v.321q0 .24.02.32.021.087.127.099.02.002.02.019 0 .023-.02.023-.009 0-.026-.003-.055-.01-.121-.01t-.118.01q-.023.005-.033.005-.018 0-.018-.018 0-.016.02-.022.047-.016.068-.066.023-.05.023-.145l.004-.184v-.334q0-.237-.148-.25-.02 0-.02-.019 0-.021.022-.021l.045.002h.028q.05 0 .108-.008l.036-.002q.02 0 .032.01t.05.064l.045.062.032.045zM41.738 20.505q.022-.001.052.029.046.046.046.125 0 .126-.086.23-.073.089-.112.092-.01 0-.01-.012 0-.01.022-.03.028-.026.047-.069.018-.042.018-.082 0-.067-.06-.114-.028-.023-.028-.04 0-.02.046-.073.046-.054.065-.056zM42.803 19.676q.198 0 .32.143.121.143.121.375 0 .167-.063.303-.038.081-.09.134-.05.052-.135.096-.024.012-.025.02 0 .012.042.038l.073.045q.052.033.108.033.037 0 .082-.041.007-.007.012-.007.005-.001.011.008.006.01.006.017-.001.016-.046.062-.087.09-.167.09-.048 0-.101-.025-.054-.024-.147-.09-.114-.078-.152-.1-.037-.02-.072-.02-.053 0-.09.052-.035.05-.035.124 0 .024-.017.024-.021 0-.021-.032l-.002-.06.01-.05q.014-.05.066-.111.007-.008.007-.012 0-.005-.03-.031-.073-.063-.116-.178-.043-.116-.043-.244 0-.251.137-.407.137-.156.357-.156zm-.066.06q-.127 0-.2.108-.074.109-.074.295 0 .25.098.41.1.162.252.162.129 0 .206-.12.078-.119.078-.316 0-.225-.105-.382t-.255-.157zM44.023 19.687q.005-.001.015.002l.052.005.069.003.064-.003.057-.007.022-.001q.017 0 .017.02 0 .015-.016.018l-.025.006q-.05.01-.05.128v.162q0 .223-.02.359-.018.136-.06.21-.098.18-.333.18-.167 0-.259-.074-.124-.101-.124-.392l.007-.298-.002-.14q0-.052-.01-.074-.007-.021-.035-.037-.032-.017-.072-.024-.025-.005-.025-.023 0-.02.022-.02l.027.002q.083.01.128.01.064 0 .141-.01l.045-.002q.034 0 .034.022 0 .012-.005.017-.006.005-.025.01-.04.008-.054.035-.013.025-.016.1l-.01.194v.136q0 .186.016.266.017.078.07.134.078.086.202.086.126 0 .203-.088.053-.06.074-.173.022-.114.022-.327v-.063l-.003-.158q-.004-.071-.038-.11-.034-.04-.092-.04-.026 0-.026-.023 0-.018.013-.018zM44.668 20.507l.006.077q.008.06.038.091.03.032.08.032.031 0 .031.023 0 .022-.042.022-.018 0-.052-.003-.085-.011-.138-.011-.065 0-.103.008-.033.008-.047.008-.014 0-.018-.016l-.001-.006.019-.018q.047-.02.062-.049t.015-.096V19.887q0-.071-.02-.101-.02-.03-.076-.04-.034-.006-.043-.012-.01-.006-.01-.02 0-.021.016-.02.012 0 .035.006.024.006.08.006.036 0 .09-.005l.048-.005q.067-.006.103-.006.021 0 .021.018 0 .014-.003.019-.004.004-.017.007-.047.009-.06.03-.013.022-.013.088zM45.216 19.87l.346.457.023.03q.044.058.059.058.014 0 .015-.047.005-.17.005-.324 0-.181-.03-.245-.032-.064-.122-.072-.022-.001-.022-.017 0-.02.02-.02.023 0 .075.007.034.005.056.005.045 0 .143-.015l.019-.001q.02 0 .02.021 0 .02-.02.024-.084.018-.084.176v.038l-.01.48-.002.067v.144l.003.096q0 .022-.014.021-.011 0-.024-.017l-.594-.778q-.016-.02-.022-.02-.015 0-.015.034l-.001.023v.298q0 .24.02.32.022.087.128.099.02.002.02.019 0 .023-.021.023l-.026-.003q-.054-.01-.12-.01-.067 0-.118.01-.023.005-.034.005-.017 0-.017-.018 0-.016.019-.022.047-.016.069-.066.022-.05.022-.145l.005-.184v-.334q0-.237-.148-.25-.02 0-.02-.019 0-.021.021-.021l.045.002h.028q.05 0 .109-.008l.036-.002q.02 0 .032.01.011.01.05.064l.044.062.032.045zM46.353 19.881v.58q0 .13.032.185.032.054.113.06.023.002.023.027 0 .018-.02.018l-.016-.001-.05-.002-.08-.006-.027-.001q-.038 0-.068.002l-.144.01-.031.003q-.02 0-.02-.02.001-.017.007-.021.005-.006.025-.007.051-.004.079-.044.028-.04.028-.108l-.001-.036v-.684q0-.061-.055-.061-.13 0-.179.022-.034.017-.046.039-.011.02-.03.105l-.006.021q-.007.032-.022.032-.022 0-.02-.024 0-.022.006-.06l.006-.067.009-.069.004-.047q.003-.03.028-.03l.022.002q.025.002.072.002l.133.002.159.002q.153 0 .325-.01l.044-.002q.036 0 .038.036l.003.055q0 .013.007.063.004.04.004.065t-.017.025q-.015 0-.021-.029-.014-.071-.053-.103t-.112-.032q-.1 0-.124.019-.024.018-.024.09zM47.167 19.781l.297.805q.023.06.053.09t.077.04q.012.003.012.022 0 .021-.015.02-.008 0-.025-.004-.05-.013-.162-.013t-.152.011q-.01.003-.017.003-.018 0-.018-.021 0-.011.014-.016.031-.011.052-.039.02-.028.02-.058 0-.044-.056-.19-.018-.045-.04-.05-.02-.008-.15-.008h-.088l-.06.013q-.023.013-.054.101l-.02.06q-.01.025-.01.051 0 .097.115.113.025.003.025.022-.001.02-.024.02-.012 0-.033-.005-.043-.01-.077-.01-.03 0-.1.008-.05.006-.063.006-.018 0-.018-.018 0-.016.018-.023.036-.013.057-.048.021-.036.063-.148l.178-.485.03-.08.06-.146.032-.073v.002l.01-.028q.01-.03.018-.03.01 0 .036.065zm.025.482-.085-.235q-.03-.085-.044-.085-.008 0-.029.055l-.012.032-.076.206-.008.019q-.004.011-.004.02 0 .026.047.026h.193q.024 0 .024-.016l-.003-.013zM47.975 19.87l.345.457.023.03q.044.058.059.058.014 0 .015-.047.006-.17.006-.324 0-.181-.032-.245-.03-.064-.121-.072-.022-.001-.022-.017 0-.02.02-.02.023 0 .075.007.034.005.056.005.045 0 .143-.015l.019-.001q.02 0 .02.021 0 .02-.02.024-.084.018-.084.176v.038l-.01.48-.002.067v.144l.003.096q0 .022-.013.021-.012 0-.025-.017l-.594-.778q-.016-.02-.022-.02-.015 0-.015.034v.321q0 .24.02.32.021.087.127.099.02.002.02.019 0 .023-.021.023l-.025-.003q-.055-.01-.122-.01-.066 0-.117.01-.023.005-.033.005-.018 0-.018-.018 0-.016.019-.022.048-.016.07-.066.021-.05.021-.145l.005-.184v-.334q0-.237-.148-.25-.02 0-.02-.019 0-.021.022-.021l.045.002h.027q.051 0 .11-.008l.035-.002q.02 0 .032.01t.05.064l.045.062.031.045zM49.09 19.781l.297.805q.022.06.052.09t.078.04q.012.003.012.022 0 .021-.015.02-.008 0-.025-.004-.05-.013-.162-.013t-.152.011q-.01.003-.017.003-.018 0-.018-.021 0-.011.014-.016.031-.011.051-.039.021-.028.021-.058 0-.044-.056-.19-.018-.045-.04-.05-.02-.008-.15-.008h-.088l-.06.013q-.023.013-.054.101l-.02.06q-.01.025-.01.051 0 .097.115.113.025.003.025.022-.001.02-.024.02-.012 0-.033-.005-.043-.01-.077-.01-.03 0-.1.008-.05.006-.063.006-.018 0-.018-.018 0-.016.018-.023.036-.013.057-.048.021-.036.063-.148l.178-.485.03-.08.06-.146.032-.073v.002l.01-.028q.01-.03.018-.03.01 0 .036.065zm.025.482-.085-.235q-.031-.085-.044-.085-.008 0-.029.055l-.012.032-.077.206-.007.019q-.004.011-.004.02 0 .026.046.026h.194q.024 0 .024-.016l-.003-.013zM50.154 20.448q0 .146.023.199.023.051.09.06.027.002.027.024 0 .021-.022.021l-.027-.002q-.056-.005-.108-.005-.044 0-.078.003l-.054.006-.044.005-.026.002q-.023 0-.023-.021 0-.017.013-.022.044-.016.061-.043.017-.027.017-.084v-.66q0-.093-.019-.124-.032-.052-.104-.063-.027-.004-.027-.026 0-.021.018-.021l.024.002q.05.006.11.006.066 0 .16-.008.11-.01.152-.01.124 0 .206.08.081.079.081.2 0 .076-.036.139-.036.062-.1.094-.013.006-.012.016 0 .007.006.018l.018.036.058.122.067.14q.035.073.062.1.027.028.064.028.015 0 .028-.003l.014-.002q.012 0 .012.017 0 .023-.054.051-.053.029-.094.029-.067 0-.124-.078-.056-.078-.147-.294-.035-.086-.058-.108-.023-.023-.075-.023h-.04l-.03.006q-.01.006-.01.037zm0-.602v.266q0 .05.01.063.011.013.052.013.116 0 .144-.005.028-.005.052-.031.047-.051.047-.14 0-.117-.064-.192-.064-.076-.163-.076-.045 0-.062.022-.016.021-.016.08zM51.263 19.675q.204 0 .33.14.124.14.124.367 0 .247-.129.419-.126.168-.347.168-.211 0-.338-.146-.127-.146-.127-.39 0-.105.032-.208.032-.104.087-.174.064-.083.16-.129.099-.047.208-.047zm-.047.058q-.131 0-.205.115-.074.114-.074.32 0 .24.093.393.092.15.24.15.134 0 .214-.124.08-.126.08-.335 0-.121-.036-.236-.038-.115-.1-.183-.09-.1-.212-.1zM52.298 19.675q.204 0 .329.14.125.14.125.367 0 .247-.129.419-.126.168-.347.168-.211 0-.338-.146-.127-.146-.127-.39 0-.105.032-.208.032-.104.087-.174.063-.083.16-.129.099-.047.208-.047zm-.047.058q-.132 0-.205.115-.074.114-.074.32 0 .24.093.393.092.15.24.15.134 0 .214-.124.08-.126.08-.335 0-.121-.037-.236-.037-.115-.099-.183-.09-.1-.212-.1zM52.965 20.505q.022-.001.052.029.046.046.046.125 0 .126-.086.23-.073.089-.112.092-.01 0-.01-.012 0-.01.022-.03.029-.026.047-.069.018-.042.018-.082 0-.067-.06-.114-.027-.023-.027-.04 0-.02.045-.073.047-.054.065-.056zM53.781 19.741l.268.69q.017.046.03.045.011 0 .023-.032l.247-.618q.035-.088.05-.11.015-.022.039-.022l.028.002.04.002q.026 0 .065-.005l.03-.003q.023 0 .023.022 0 .018-.017.02-.062.005-.086.048-.025.043-.025.145l.001.053.016.479v.031q0 .106.032.158.032.05.104.06.018.003.018.022 0 .021-.044.021-.013 0-.042-.004-.08-.01-.113-.01-.068 0-.114.008-.043.008-.059.008t-.016-.02q0-.014.019-.02.037-.013.052-.04.016-.026.016-.08v-.036l-.021-.511q0-.02-.008-.02-.01 0-.027.041l-.245.615-.01.023q-.019.048-.031.049-.014 0-.048-.085l-.034-.08-.209-.55-.005-.012q-.002-.005-.007-.005-.01 0-.01.032l-.001.024-.008.39v.03l.005.072q.018.113.102.139.03.008.03.026 0 .02-.023.02-.018 0-.042-.004l-.047-.007q-.017-.003-.05-.003-.06 0-.093.007-.022.006-.033.006-.02 0-.02-.02 0-.014.016-.02.05-.02.073-.071.023-.052.023-.143l.018-.506.002-.051q0-.093-.039-.145-.038-.053-.104-.053-.025 0-.025-.022t.028-.022h.015l.038.004h.027q.03 0 .06-.004.044-.006.057-.006.043 0 .062.048zM54.98 19.873v.167q0 .072.008.09.009.02.043.02h.02l.028-.001h.055q.065 0 .1-.084l.015-.038q.006-.014.02-.015.014 0 .014.021l-.002.034v.034q0 .025.005.115.004.06.004.104v.039q0 .01-.002.014-.002.005-.01.006-.016.001-.02-.03-.008-.065-.04-.099-.016-.018-.041-.024-.024-.005-.091-.005h-.045q-.031 0-.043.012-.01.01-.015.044-.004.039-.004.122v.07q0 .108.015.156.01.034.026.046.015.013.046.013.265 0 .347-.19.004-.01.007-.01.006-.002.012.005.005.006.005.016 0 .076-.034.147-.029.06-.072.086-.043.025-.114.025-.042 0-.093-.006l-.076-.008q-.041-.005-.113-.005-.047 0-.144.007l-.039.002q-.015 0-.017-.017 0-.014.015-.02.037-.018.05-.036.014-.02.021-.068.008-.04.008-.11v-.611q0-.087-.024-.117-.024-.031-.099-.044-.017-.003-.017-.022 0-.018.021-.018l.02.002h.032l.066.004.247.003q.213 0 .263-.007h.009q.019 0 .019.024 0 .018.004.064.005.067.005.096 0 .058-.025.06-.013 0-.013-.034 0-.076-.047-.11-.047-.035-.153-.035h-.08l-.044.006q-.033.013-.033.078zm.147-.508.015.001q.033.004.055.004.035 0 .035.029 0 .013-.007.022-.006.01-.045.051l-.06.067-.03.032q-.013.013-.028.02-.033.016-.038.02-.013.006-.023.007-.018.002-.016-.018 0-.007.009-.02l.019-.034.068-.124.02-.036q.011-.02.027-.02zM56.072 19.691l.024.002q.062.005.115.005l.06-.002.08-.007.041-.002q.018 0 .018.02t-.021.024q-.058.01-.087.037-.084.078-.19.227l-.085.12q-.03.038-.03.05 0 .014.039.071l.085.142q.108.182.183.27.048.056.12.062.023.002.023.025 0 .021-.024.021l-.028-.001-.083-.008q-.06-.005-.103-.005-.03 0-.057.002l-.072.005-.053.003q-.022 0-.022-.019 0-.021.024-.024.053-.004.053-.058 0-.027-.032-.087-.032-.059-.115-.186l-.032-.05q-.009-.014-.014-.014-.005 0-.015.014l-.04.055q-.15.2-.15.258 0 .063.102.072.021.002.021.02 0 .02-.013.02l-.025-.002q-.08-.01-.159-.01-.022 0-.06.003l-.057.002-.03.002-.017-.004q-.006-.003-.006-.013 0-.016.017-.02.051-.013.101-.062.05-.05.137-.172.075-.106.107-.146.048-.061.048-.078 0-.016-.049-.091l-.075-.121q-.122-.201-.16-.245-.038-.044-.099-.058-.025-.005-.025-.025 0-.023.021-.023l.037.003q.107.009.158.009.05 0 .085-.005l.06-.007q.028-.003.043-.003.02 0 .02.02t-.024.023q-.022.004-.038.021t-.014.036q.003.045.047.128l.045.073.047.081q.02.035.031.034.007 0 .017-.014l.03-.042.068-.096q.054-.073.067-.098.013-.026.013-.052 0-.051-.054-.06l-.03-.005q-.023-.004-.021-.024.002-.02.023-.02zM56.737 20.507l.006.077q.008.06.037.091.031.032.08.032.032 0 .032.023 0 .022-.042.022-.019 0-.053-.003-.084-.011-.137-.011-.066 0-.103.008-.033.008-.047.008-.015 0-.019-.016v-.006l.019-.018q.046-.02.061-.049.016-.029.016-.096V19.887q0-.071-.02-.101-.021-.03-.076-.04-.034-.006-.044-.012-.009-.006-.009-.02 0-.021.016-.02.012 0 .035.006.024.006.08.006.036 0 .09-.005l.047-.005q.068-.006.104-.006.021 0 .021.018 0 .014-.004.019-.003.004-.016.007-.047.009-.06.03-.014.022-.014.088zM57.397 19.676q.122 0 .213.061l.043.03q.013.009.024.009.013 0 .02-.012l.013-.024q.004-.006.012-.006.02 0 .02.05v.126l.006.058.006.035q.003.025.003.045 0 .03-.018.03-.01 0-.013-.019-.006-.029-.037-.089-.03-.06-.059-.096-.113-.145-.252-.145-.124 0-.2.12-.078.12-.078.31 0 .25.126.398.095.111.207.111.065 0 .14-.037.073-.037.115-.093l.043-.054q.009-.013.017-.014.013 0 .013.017 0 .032-.052.101-.135.18-.333.18-.192 0-.312-.144-.12-.145-.12-.377 0-.127.045-.249.045-.121.12-.197.124-.125.288-.125zM58.33 19.675q.203 0 .329.14.125.14.125.367 0 .247-.13.419-.125.168-.346.168-.212 0-.338-.146-.127-.146-.127-.39 0-.105.032-.208.032-.104.087-.174.063-.083.16-.129.098-.047.208-.047zm-.048.058q-.13 0-.205.115-.073.114-.073.32 0 .24.092.393.093.15.241.15.134 0 .214-.124.08-.126.08-.335 0-.121-.037-.236-.037-.115-.099-.183-.09-.1-.213-.1z"/></g><g aria-label="2000" style="font-weight:600;font-stretch:semi-expanded;font-size:1.43756px;line-height:1.25;font-family:'Goudy Old Style';-inkscape-font-specification:'Goudy Old Style Semi-Bold Semi-Expanded';letter-spacing:0;word-spacing:0;stroke-width:.119795"><path d="M20.67 20.487q.015 0 .016.013l-.001.008-.01.033q-.009.031-.022.065l-.034.08q-.02.048-.034.058-.014.01-.062.01l-.069-.002-.055-.004-.088-.001q-.105 0-.132.005-.018.004-.027.004-.02 0-.02-.02 0-.015.038-.065.06-.08.137-.21.078-.13.115-.214.05-.113.05-.203 0-.078-.039-.124-.037-.047-.1-.047-.09 0-.161.094-.007.01-.012.01t-.01-.006q-.006-.007-.006-.013 0-.01.02-.042.02-.033.042-.057.087-.1.2-.1.09 0 .145.059.055.058.055.153 0 .171-.255.51l-.031.043q-.028.035-.028.05 0 .027.055.027l.106-.002h.063q.041-.003.08-.03.04-.029.06-.07.006-.012.014-.012zM21.09 19.76q.119 0 .2.128.082.127.082.315 0 .118-.035.24-.034.12-.09.2-.09.129-.205.129-.122 0-.2-.132-.079-.13-.079-.335 0-.221.097-.383t.23-.162zm-.065.077q-.068 0-.107.078-.04.078-.04.211 0 .23.072.389.07.158.172.158.067 0 .107-.078.04-.079.04-.212 0-.12-.032-.246-.03-.125-.079-.203-.062-.097-.133-.097zM21.754 19.76q.12 0 .201.128.082.127.082.315 0 .118-.035.24-.034.12-.09.2-.09.129-.205.129-.122 0-.2-.132-.079-.13-.079-.335 0-.221.097-.383t.23-.162zm-.064.077q-.067 0-.107.078-.04.078-.04.211 0 .23.072.389.07.158.172.158.067 0 .107-.078.04-.079.04-.212 0-.12-.032-.246-.03-.125-.079-.203-.062-.097-.133-.097zM22.42 19.76q.119 0 .2.128.082.127.082.315 0 .118-.035.24-.034.12-.09.2-.09.129-.205.129-.122 0-.2-.132-.079-.13-.079-.335 0-.221.097-.383t.23-.162zm-.065.077q-.067 0-.107.078-.039.078-.039.211 0 .23.07.389.072.158.174.158.066 0 .106-.078.04-.079.04-.212 0-.12-.032-.246-.03-.125-.079-.203-.061-.097-.133-.097z"/></g><g aria-label="niversidad" style="font-weight:700;font-stretch:semi-expanded;font-size:7.59794px;line-height:1.25;font-family:'Goudy Old Style';-inkscape-font-specification:'Goudy Old Style, Bold Semi-Expanded';letter-spacing:0;word-spacing:0;stroke-width:.633161"><path d="M30.802 6.216v.753q0 .241.026.33.026.085.118.163.134.108.342.13.115.015.115.09 0 .11-.264.11-.055 0-.16-.014l-.24-.03q-.164-.018-.256-.018-.353 0-.564.04-.086.015-.149.015-.081 0-.081-.081 0-.06.085-.093.163-.056.219-.175.056-.118.056-.4V6.16q0-.504-.204-.797-.2-.297-.55-.297-.311 0-.504.17-.19.171-.19.446V6.92q0 .341.127.5.13.156.434.182.104.011.104.086 0 .104-.13.104-.122 0-.293-.019-.42-.052-.579-.052-.215 0-.497.037-.134.019-.182.019-.092 0-.092-.078 0-.052.063-.078.189-.07.24-.152.053-.086.053-.308l.004-.123V5.734l-.004-.145q0-.267-.056-.367-.052-.104-.197-.104h-.17q-.037 0-.056-.023-.018-.018-.018-.055 0-.07.055-.097.056-.03.327-.096.463-.108.775-.323.026-.022.048-.022.045-.004.045.07l-.011.186-.004.211.022.141q.015.045.048.049.03.003.119-.1.341-.416.901-.416.605 0 .865.367.26.364.26 1.206zM32.497 2.78q.078 0 .278.253l.156.2q.056.07.06.13.004.089-.204.338-.208.248-.286.248-.052 0-.1-.044l-.175-.212-.163-.185Q32 3.43 32 3.38q0-.074.219-.337.219-.264.278-.264zm.4 2.026V6.91q0 .378.112.526.115.149.423.167.122.008.122.086 0 .096-.293.096-.037 0-.16-.011l-.277-.03q-.23-.022-.305-.022-.196 0-.53.052-.082.015-.126.015-.078 0-.078-.07 0-.049.048-.075l.126-.063q.082-.04.137-.193.06-.152.06-.319l-.004-.156V5.656q0-.29-.063-.401-.06-.111-.22-.111h-.084q-.071 0-.097-.03-.011-.015-.011-.052 0-.093.226-.14.564-.12.887-.36.04-.027.063-.027.052.004.052.07l-.004.034q-.004.034-.004.167zM34.768 5.437l.508 1.142q.096.216.156.22.096.007.441-.69.345-.702.345-.906 0-.319-.382-.345-.093-.004-.093-.085 0-.078.104-.078l.197.01.226.008.308.019.16-.015q.085-.015.118-.015.067 0 .067.074 0 .082-.096.112-.141.04-.242.248l-.17.342-.33.675Q35.26 7.84 35.12 7.84q-.074 0-.134-.13l-.037-.09-.927-2.04-.067-.133-.148-.312q-.104-.211-.212-.252-.144-.056-.148-.108-.007-.074.081-.081l.034.003q.337.045.545.045.145 0 .494-.026.211-.019.304-.019.148 0 .182.015.037.011.037.067 0 .07-.104.09-.356.058-.356.24 0 .097.104.327zM38.355 4.64q.575 0 .99.452.35.382.35.764 0 .145-.201.145l-.17-.008h-.086l-.226.004-.701.011-.368.004-.126-.004q-.107 0-.137.026-.04.037-.04.137 0 .49.318.868.323.375.742.375.471 0 .753-.27l.119-.116q.03-.03.063-.03.082 0 .082.079 0 .107-.286.36-.505.445-1.083.445-.642 0-1.047-.442-.404-.441-.404-1.139 0-.675.43-1.168.435-.494 1.028-.494zm-.104.185q-.252 0-.441.248-.19.249-.19.586 0 .108.052.13.056.022.293.022.123 0 .26-.007.334-.015.386-.015.326 0 .326-.2 0-.3-.211-.53-.208-.234-.475-.234zM41.349 5.915v1.043q0 .586.55.66.114.015.114.09 0 .092-.085.092-.041 0-.104-.011-.371-.056-.764-.056-.208 0-.375.015l-.23.022q-.063.008-.13.008-.104 0-.104-.097 0-.067.093-.089.293-.07.293-.553l-.004-.155V5.555q0-.267-.07-.352-.067-.089-.294-.108-.085-.007-.085-.077 0-.082.1-.097.509-.078.868-.286l.145-.085q.03-.018.056-.018.055 0 .055.081l-.004.108-.01.207-.016.23.004.041q.015.052.056.056.037.004.163-.178.1-.141.308-.3.212-.164.29-.164.126 0 .374.193.253.193.256.29 0 .033-.118.26-.153.285-.268.285-.048 0-.089-.037l-.103-.093q-.19-.174-.434-.174-.438 0-.438.578zM44.284 4.643q.252 0 .552.085.152.045.164.145l.007.163.018.234.007.126q.007.026.007.044 0 .071-.078.071-.06 0-.193-.245-.263-.475-.664-.475-.2 0-.345.126-.144.127-.144.297 0 .312.434.494l.256.103q.326.138.445.216.119.074.226.215.182.241.182.593 0 .438-.293.742-.293.305-.716.305-.23 0-.56-.078l-.256-.063-.167-.026q-.082-.015-.082-.104 0-.03.004-.093.007-.063.007-.145l-.011-.404-.004-.182q0-.085.015-.104.018-.022.089-.022.06 0 .081.1.045.234.245.56.241.386.635.386.222 0 .37-.137.149-.141.149-.352 0-.234-.145-.371-.14-.138-.541-.297-.479-.186-.664-.394-.186-.211-.186-.567 0-.434.312-.69.311-.256.842-.256zM46.454 2.78q.078 0 .278.253l.156.2q.056.07.06.13.003.089-.205.338-.207.248-.285.248-.052 0-.1-.044l-.175-.212-.163-.185q-.063-.078-.063-.127 0-.074.219-.337.218-.264.278-.264zm.4 2.026V6.91q0 .378.112.526.115.149.423.167.122.008.122.086 0 .096-.293.096-.037 0-.16-.011l-.278-.03q-.23-.022-.304-.022-.197 0-.53.052-.082.015-.127.015-.077 0-.077-.07 0-.049.048-.075l.126-.063q.081-.04.137-.193.06-.152.06-.319l-.004-.156V5.656q0-.29-.064-.401-.059-.111-.218-.111h-.086q-.07 0-.096-.03-.011-.015-.011-.052 0-.093.226-.14.564-.12.887-.36.04-.027.063-.027.052.004.052.07l-.004.034q-.004.034-.004.167zM50.898 3.726v3.087q0 .364.09.497.088.13.337.13.119 0 .119.09 0 .114-.115.114l-.204.026-.327.048q-.226.03-.52.141-.066.026-.11.026-.038 0-.038-.066l.004-.305q0-.059-.018-.089l-.026-.015q-.023 0-.052.034-.182.185-.482.311-.3.127-.56.127-.56 0-.91-.379-.348-.382-.348-.994 0-.78.456-1.32.46-.546 1.12-.546.342 0 .709.14.033.016.063.016.063 0 .063-.13v-.872q0-.456-.085-.612-.082-.156-.327-.156-.122 0-.122-.093 0-.081.074-.092l.208-.038q.516-.081.853-.319.067-.048.115-.052.06-.003.06.12l-.004.092q-.011.14-.011.23l-.004.2zm-.75 3.224V5.585q0-.29-.292-.508-.293-.223-.683-.223-.349 0-.564.3-.215.298-.215.784 0 .612.32 1.038.322.423.786.423.17 0 .363-.078.193-.078.245-.17.04-.067.04-.2zM53.547 6.012q.041-.17.041-.293 0-.375-.182-.612-.178-.238-.46-.238-.36 0-.36.297 0 .056.007.108l.011.07q0 .252-.57.252-.15 0-.142-.13 0-.026.019-.081l.022-.097q.048-.237.226-.363.394-.282.95-.282.642 0 .961.297.245.226.245.786 0 .282-.022.709-.023.49-.023.653 0 .382.304.382.108 0 .16-.026.06-.026.085-.026.052 0 .052.052 0 .093-.145.174l-.144.074-.126.075q-.134.07-.293.07-.327 0-.55-.423-.69.442-1.146.442-.315 0-.493-.182t-.178-.505q0-.586.512-.853.315-.16 1.239-.33zm-.074.211q-.319-.022-.608.227-.29.248-.29.545 0 .49.393.49.245 0 .427-.115.1-.06.137-.204.037-.145.037-.479l.004-.286v-.078l-.022-.081q-.018-.015-.078-.019zM58.188 3.726v3.087q0 .364.09.497.088.13.337.13.119 0 .119.09 0 .114-.115.114l-.204.026-.327.048q-.226.03-.52.141-.066.026-.11.026-.038 0-.038-.066l.004-.305q0-.059-.018-.089l-.026-.015q-.023 0-.052.034-.182.185-.482.311-.3.127-.56.127-.56 0-.91-.379-.348-.382-.348-.994 0-.78.456-1.32.46-.546 1.12-.546.342 0 .709.14.033.016.063.016.063 0 .063-.13v-.872q0-.456-.085-.612-.082-.156-.327-.156-.122 0-.122-.093 0-.081.074-.092l.208-.038q.516-.081.853-.319.067-.048.115-.052.06-.003.06.12l-.004.092q-.011.14-.011.23l-.004.2zM57.44 6.95V5.585q0-.29-.293-.508-.293-.223-.683-.223-.348 0-.564.3-.215.298-.215.784 0 .612.32 1.038.322.423.786.423.17 0 .363-.078.193-.078.245-.17.04-.067.04-.2z"/></g><path d="M126.887 62.482q.049-.007.159.021.117.02.544.041l.73.035.674-.028q.344-.027.606-.062.124-.014.227-.014.186 0 .186.18 0 .137-.172.165l-.262.048q-.537.09-.537 1.15l.007.599-.013.847q0 1.99-.2 3.208-.193 1.219-.627 1.88-1.04 1.604-3.525 1.604-1.755 0-2.726-.661-1.315-.902-1.315-3.498l.075-2.664-.02-1.253q0-.469-.097-.661-.09-.193-.378-.33-.338-.16-.758-.221-.268-.041-.268-.207 0-.179.234-.179.076 0 .282.021.875.083 1.35.083.674 0 1.494-.076.33-.028.475-.028.358 0 .358.2 0 .11-.055.151-.055.042-.262.083-.42.083-.565.317-.144.227-.179.895l-.11 1.735.014 1.219q0 1.666.172 2.375.18.702.73 1.205.833.764 2.134.764 1.33 0 2.149-.785.55-.53.778-1.549.234-1.019.234-2.926v-.558l-.035-1.411q-.041-.64-.399-.992-.358-.358-.97-.358-.27 0-.27-.2 0-.158.131-.165z" transform="matrix(.99995 0 0 1.00005 -102.863 -62.378)" aria-label="U" style="font-weight:700;font-stretch:semi-expanded;font-size:14.1007px;line-height:1.25;font-family:'Goudy Old Style';-inkscape-font-specification:'Goudy Old Style, Bold Semi-Expanded';letter-spacing:0;word-spacing:0;stroke-width:1.17506"/><text xml:space="preserve" style="font-style:normal;font-variant:normal;font-weight:700;font-stretch:semi-expanded;font-size:14.1004px;line-height:1.25;font-family:'Goudy Old Style';-inkscape-font-specification:'Goudy Old Style, Bold Semi-Expanded';font-variant-ligatures:normal;font-variant-caps:normal;font-variant-numeric:normal;font-variant-east-asian:normal;letter-spacing:0;word-spacing:0;fill:#000;stroke-width:1.17503" x="128.861" y="81.011" transform="matrix(.99997 0 0 1.00003 -102.863 -62.378)"><tspan style="font-style:normal;font-variant:normal;font-weight:700;font-stretch:semi-expanded;font-size:14.1004px;font-family:'Goudy Old Style';-inkscape-font-specification:'Goudy Old Style, Bold Semi-Expanded';font-variant-ligatures:normal;font-variant-caps:normal;font-variant-numeric:normal;font-variant-east-asian:normal;fill:#000;stroke-width:1.17503" x="128.861" y="81.011">C</tspan></text><g aria-label="aribe" style="font-weight:700;font-stretch:semi-expanded;font-size:7.59817px;line-height:1.25;font-family:'Goudy Old Style';-inkscape-font-specification:'Goudy Old Style, Bold Semi-Expanded';letter-spacing:0;word-spacing:0;stroke-width:.633181"><path d="M36.413 13.94q.04-.17.04-.293 0-.374-.181-.612-.178-.237-.46-.237-.36 0-.36.296 0 .056.007.108l.011.07q0 .253-.571.253-.149 0-.141-.13 0-.026.018-.082.011-.04.023-.096.048-.238.226-.364.393-.282.95-.282.641 0 .96.297.245.226.245.787 0 .282-.022.709-.023.49-.023.653 0 .382.305.382.107 0 .16-.026.058-.026.084-.026.052 0 .052.052 0 .093-.144.174l-.145.074-.126.075q-.134.07-.293.07-.327 0-.55-.423-.69.442-1.145.442-.316 0-.494-.182t-.178-.505q0-.586.512-.853.315-.16 1.24-.33zm-.075.212q-.319-.022-.608.226-.29.249-.29.546 0 .49.394.49.245 0 .427-.115.1-.06.137-.204.037-.145.037-.48l.004-.285v-.078l-.022-.081q-.019-.015-.078-.019zM39.11 13.844v1.043q0 .586.548.66.115.015.115.09 0 .092-.085.092-.04 0-.104-.011-.37-.056-.764-.056-.208 0-.375.015l-.23.022q-.063.008-.13.008-.103 0-.103-.097 0-.066.093-.089.293-.07.293-.553l-.004-.155v-1.329q0-.267-.07-.352-.068-.09-.294-.108-.085-.007-.085-.078 0-.082.1-.096.508-.078.868-.286l.145-.086q.03-.018.055-.018.056 0 .056.082l-.004.107-.011.208-.015.23.004.04q.015.053.056.057.037.003.163-.179.1-.14.308-.3.211-.163.289-.163.126 0 .375.192.252.193.256.29 0 .033-.12.26-.151.285-.266.285-.048 0-.09-.037l-.103-.092q-.19-.175-.434-.175-.438 0-.438.579zM41.613 10.708q.078 0 .278.253l.156.2q.056.07.06.13.004.09-.204.338-.208.248-.286.248-.052 0-.1-.044l-.175-.212-.163-.185q-.063-.078-.063-.126 0-.075.219-.338.219-.264.278-.264zm.4 2.027v2.104q0 .378.112.526.115.149.423.167.122.008.122.086 0 .096-.293.096-.037 0-.16-.01l-.277-.03q-.23-.023-.305-.023-.196 0-.53.052-.082.015-.126.015-.078 0-.078-.07 0-.049.048-.075l.126-.063q.082-.04.138-.193.059-.152.059-.319l-.004-.156v-1.258q0-.29-.063-.4-.06-.112-.219-.112h-.085q-.07 0-.097-.03-.01-.014-.01-.051 0-.093.225-.141.564-.12.887-.36.04-.026.063-.026.052.003.052.07l-.004.034q-.004.033-.004.167zM43.95 13.128q0 .052.026.056l.037-.041q.378-.572 1.035-.572.571 0 .92.382.352.383.352 1.006 0 .809-.474 1.332-.475.52-1.21.52-.256 0-.534-.086-.274-.085-.423-.211-.048-.045-.07-.04-.037.003-.16.17-.148.2-.204.204-.06.004-.06-.1 0-.067.008-.182.022-.264.022-.397v-3.685q0-.27-.096-.393-.093-.123-.308-.123-.07 0-.07-.081 0-.075.085-.097l.233-.052q.338-.082.776-.349.033-.018.063-.022.052-.004.052.2zm0 .338v1.428q0 .175.2.4.275.32.687.32.389 0 .619-.304.234-.308.234-.828 0-.62-.308-1.031-.308-.412-.772-.412-.449 0-.66.427zM48.257 12.568q.574 0 .99.452.349.382.349.765 0 .144-.2.144l-.171-.007h-.086l-.226.004-.7.01-.368.005-.126-.004q-.108 0-.138.026-.04.037-.04.137 0 .49.319.868.322.375.742.375.47 0 .753-.27l.118-.116q.03-.03.063-.03.082 0 .082.079 0 .107-.286.36-.504.445-1.083.445-.642 0-1.046-.442-.404-.441-.404-1.139 0-.675.43-1.169.434-.493 1.028-.493zm-.104.185q-.253 0-.442.249-.189.248-.189.586 0 .108.052.13.056.022.293.022.122 0 .26-.007.334-.015.385-.015.327 0 .327-.2 0-.301-.212-.531-.207-.234-.474-.234z"/></g><g aria-label="del" style="font-weight:700;font-stretch:semi-expanded;font-size:5.03036px;line-height:1.25;font-family:'Goudy Old Style';-inkscape-font-specification:'Goudy Old Style, Bold Semi-Expanded';letter-spacing:0;word-spacing:0;stroke-width:.419197"><path d="M20.55 13.047v2.043q0 .24.06.329.059.086.223.086.079 0 .079.059 0 .076-.076.076l-.135.017-.217.032q-.15.02-.344.093-.044.018-.073.018-.025 0-.025-.045l.002-.201q0-.04-.012-.059l-.017-.01q-.015 0-.035.022-.12.123-.32.207-.198.083-.37.083-.371 0-.602-.25-.23-.253-.23-.659 0-.515.301-.874.305-.36.742-.36.226 0 .47.093.022.01.041.01.042 0 .042-.087v-.577q0-.302-.056-.405-.054-.103-.217-.103-.08 0-.08-.061 0-.054.048-.062l.138-.024q.341-.054.565-.212.044-.032.076-.034.04-.002.04.079l-.003.061q-.007.093-.007.152l-.002.133zm-.496 2.134v-.904q0-.192-.194-.336-.194-.148-.452-.148-.23 0-.373.2-.143.196-.143.517 0 .405.212.688.213.28.52.28.113 0 .241-.052.128-.051.162-.113.027-.044.027-.132zM22.103 13.65q.381 0 .656.3.231.253.231.506 0 .096-.132.096l-.114-.005h-.056l-.15.003-.464.007-.243.002-.084-.002q-.071 0-.09.017-.028.025-.028.091 0 .324.211.575.214.248.492.248.312 0 .498-.18l.08-.076q.019-.02.04-.02.055 0 .055.052 0 .071-.19.238-.333.295-.717.295-.425 0-.692-.292-.268-.292-.268-.754 0-.447.285-.774.287-.326.68-.326zm-.069.124q-.167 0-.292.164-.125.165-.125.388 0 .071.034.086.037.015.194.015.081 0 .172-.005.221-.01.256-.01.216 0 .216-.133 0-.198-.14-.35-.138-.155-.315-.155zM24.044 12.89v2.17l.002.081q0 .244.069.34.069.093.27.127.064.01.074.02.012.01.012.046 0 .06-.049.06-.027 0-.086-.008-.197-.027-.484-.027-.32 0-.45.024-.039.008-.056.008-.052 0-.052-.062 0-.032.062-.056.186-.076.186-.322l.005-.142.002-.067v-1.981q0-.317-.054-.433-.051-.115-.194-.115-.07 0-.07-.064 0-.037.026-.049.027-.015.148-.04.312-.066.5-.179l.084-.049q.022-.012.044-.014.037-.003.037.049 0 .027-.005.123-.022.331-.022.56z"/></g><g aria-label="CONOCIMIENTO Y CULTURA PARA EL DESARROLLO HUMANO" style="font-weight:600;font-stretch:semi-expanded;font-size:1.97127px;line-height:1.25;font-family:'Goudy Old Style';-inkscape-font-specification:'Goudy Old Style Semi-Bold Semi-Expanded';letter-spacing:0;word-spacing:0;stroke-width:.16427"><path d="M.668 22.308q.18 0 .314.077l.063.036q.02.012.035.012.019 0 .029-.016l.02-.03q.005-.007.017-.007.03 0 .03.062v.158l.009.073.009.044q.006.032.006.057 0 .036-.027.036-.016 0-.02-.023-.008-.037-.054-.112-.045-.076-.087-.12-.167-.181-.372-.181-.182 0-.296.15-.113.15-.113.388 0 .312.186.498.14.139.304.139.097 0 .206-.047.108-.047.17-.116l.063-.068q.014-.016.026-.017.019 0 .019.021 0 .04-.076.126-.2.226-.492.226-.283 0-.46-.181-.176-.181-.176-.471 0-.159.066-.311.067-.152.177-.247.182-.156.425-.156zM2.043 22.307q.3 0 .485.175.185.174.185.458 0 .31-.19.524-.186.21-.513.21-.312 0-.498-.182-.187-.183-.187-.488 0-.131.047-.26.047-.13.128-.218.094-.103.237-.16.144-.06.306-.06zm-.07.072q-.194 0-.302.143-.11.144-.11.4 0 .302.137.492.137.188.356.188.197 0 .315-.155.119-.157.119-.42 0-.15-.055-.294t-.147-.229q-.132-.125-.313-.125zM3.354 22.55l.51.572.032.037q.066.073.088.073.02 0 .022-.059.01-.213.01-.405 0-.226-.047-.306-.045-.08-.18-.09-.03-.002-.03-.022 0-.025.027-.025.035 0 .112.01.05.005.082.005.067 0 .211-.018l.028-.002q.03 0 .03.027 0 .024-.03.029-.124.023-.124.22v.048l-.014.601-.004.083v.18l.004.12q0 .027-.019.026-.017 0-.035-.02l-.877-.974q-.023-.025-.032-.025-.023 0-.023.043v.402q0 .3.029.4.032.108.188.122.028.003.028.025 0 .028-.03.028l-.037-.003q-.08-.014-.179-.014-.097 0-.173.015-.034.005-.05.005-.025 0-.025-.023 0-.019.028-.027.07-.02.102-.082.032-.064.032-.182l.007-.23v-.417q0-.297-.218-.312-.03-.002-.03-.024 0-.027.033-.027l.066.003.04-.001q.076 0 .161-.01l.053-.002q.03 0 .047.013.018.013.074.08l.066.077.047.056zM5.066 22.307q.3 0 .485.175.184.174.184.458 0 .31-.19.524-.186.21-.512.21-.312 0-.499-.182-.186-.183-.186-.488 0-.131.047-.26.047-.13.128-.218.093-.103.237-.16.144-.06.306-.06zm-.07.072q-.194 0-.303.143-.109.144-.109.4 0 .302.137.492.137.188.355.188.197 0 .316-.155.118-.157.118-.42 0-.15-.055-.294t-.146-.229q-.133-.125-.314-.125zM6.542 22.308q.18 0 .314.077l.063.036q.02.012.035.012.019 0 .029-.016l.02-.03q.005-.007.017-.007.03 0 .03.062v.158l.009.073.009.044q.006.032.006.057 0 .036-.027.036-.016 0-.02-.023-.008-.037-.054-.112-.045-.076-.087-.12-.167-.181-.372-.181-.182 0-.296.15-.113.15-.113.388 0 .312.186.498.14.139.304.139.097 0 .206-.047.108-.047.17-.116l.063-.068q.014-.016.026-.017.019 0 .019.021 0 .04-.076.126-.2.226-.492.226-.283 0-.46-.181-.176-.181-.176-.471 0-.159.066-.311.067-.152.177-.247.182-.156.425-.156zM7.588 23.347l.008.097q.011.074.056.113.045.04.117.04.047 0 .047.029 0 .028-.062.028-.027 0-.077-.005-.125-.014-.203-.014-.097 0-.152.01-.049.01-.07.01-.02 0-.027-.02l-.002-.007.028-.023q.07-.025.092-.06.023-.037.023-.12v-.854q0-.088-.03-.126-.03-.037-.113-.05-.049-.008-.063-.014-.014-.008-.014-.025 0-.027.023-.026.018 0 .052.007.035.008.117.008.054 0 .134-.007l.07-.005q.099-.008.152-.008.032 0 .032.023 0 .017-.005.023-.005.006-.024.009-.07.011-.09.038-.02.027-.02.11zM8.257 22.39l.394.862q.026.057.044.056.017-.001.035-.04l.364-.773q.05-.11.073-.137.022-.028.058-.028l.042.003q.028.003.058.003.04 0 .097-.007l.044-.003q.034 0 .034.027 0 .022-.026.024-.09.007-.127.06-.036.055-.036.183l.001.065.023.599.001.04q0 .132.047.197.047.063.153.075.027.004.027.028 0 .026-.065.026-.02 0-.062-.005-.117-.013-.166-.013-.101 0-.168.01-.064.01-.087.01-.024 0-.024-.024 0-.019.028-.026.055-.016.077-.05.023-.033.023-.1l-.001-.045-.03-.64q0-.025-.012-.025-.015 0-.04.053l-.362.768-.013.029q-.028.06-.046.06-.022.002-.072-.105l-.049-.1-.309-.688-.007-.014q-.004-.007-.011-.007-.016 0-.016.04v.03l-.013.486v.039l.008.09q.027.142.151.174.043.01.043.033 0 .025-.033.025-.026 0-.062-.005l-.068-.01q-.026-.004-.075-.004-.088 0-.137.01-.032.007-.048.007-.03 0-.03-.025 0-.018.023-.025.074-.025.108-.089.035-.065.035-.178l.026-.633.003-.064q0-.116-.057-.181-.056-.067-.154-.067-.037 0-.037-.027t.042-.027h.022l.056.004.04.001q.044 0 .088-.006.065-.007.084-.007.064 0 .09.06zM10.024 23.347l.008.097q.012.074.056.113.045.04.118.04.047 0 .047.029 0 .028-.063.028-.027 0-.077-.005-.125-.014-.203-.014-.096 0-.152.01-.048.01-.07.01-.02 0-.026-.02l-.002-.007.028-.023q.07-.025.091-.06.023-.037.023-.12l.001-.086v-.768q0-.088-.03-.126-.031-.037-.113-.05-.05-.008-.064-.014-.013-.008-.013-.025 0-.027.023-.026.017 0 .052.007.035.008.116.008.054 0 .134-.007l.07-.005q.1-.008.153-.008.031 0 .031.023 0 .017-.005.023-.005.006-.024.009-.069.011-.09.038-.018.027-.018.11zM10.718 22.554v.209q0 .09.013.114.013.024.063.024l.03-.001.042-.001h.081q.096 0 .148-.105l.022-.047q.009-.018.029-.019.02 0 .02.026l-.002.043-.002.042q0 .03.009.144.006.075.006.13v.049q0 .013-.002.018-.004.006-.016.007-.024.001-.03-.037-.012-.082-.057-.124-.025-.023-.062-.03-.035-.007-.134-.007h-.066q-.046 0-.063.015-.017.013-.022.056-.006.048-.006.152v.086q0 .136.02.196.017.043.04.058.021.016.068.016.39 0 .51-.238.008-.012.012-.012.01-.002.017.006.01.008.01.02 0 .095-.052.183-.042.075-.106.108-.063.032-.168.032-.062 0-.137-.008l-.111-.01q-.062-.006-.167-.006-.07 0-.213.009l-.057.002q-.023 0-.025-.02-.001-.018.021-.027.055-.02.074-.044.02-.024.032-.085.01-.05.01-.138v-.764q0-.108-.035-.146-.035-.039-.145-.054-.026-.004-.026-.028 0-.022.031-.022l.03.002h.047l.097.005.364.003q.315 0 .388-.008l.014-.001q.028 0 .028.032 0 .022.006.078.008.084.008.12 0 .074-.038.076-.018 0-.018-.042 0-.096-.07-.138-.07-.043-.226-.043h-.117l-.065.007q-.05.016-.05.098zM11.993 22.55l.51.572.033.037q.065.073.088.073.02 0 .022-.059.009-.213.009-.405 0-.226-.046-.306-.046-.08-.18-.09-.031-.002-.031-.022 0-.025.028-.025.034 0 .111.01.05.005.083.005.066 0 .21-.018l.029-.002q.03 0 .03.027 0 .024-.03.029-.124.023-.124.22v.048l-.014.601-.004.083v.18l.004.12q0 .027-.02.026-.016 0-.035-.02l-.876-.974q-.023-.025-.032-.025-.023 0-.023.043l-.001.028v.374q0 .3.03.4.031.108.187.122.03.003.03.025 0 .028-.03.028l-.038-.003q-.08-.014-.18-.014-.096 0-.172.015-.034.005-.05.005-.025 0-.025-.023 0-.019.027-.027.07-.02.102-.082.033-.064.033-.182l.007-.23v-.417q0-.297-.218-.312-.03-.002-.03-.024 0-.027.033-.027l.066.003.04-.001q.075 0 .161-.01l.053-.002q.03 0 .047.013t.073.08l.067.077.047.056zM13.67 22.565v.725q0 .162.047.23t.166.076q.035.003.035.033 0 .023-.03.023l-.024-.001-.072-.003-.12-.008h-.039q-.056 0-.1.002l-.213.012q-.033.004-.046.004-.03 0-.029-.025.001-.02.01-.027.01-.006.038-.008.075-.005.115-.054.042-.05.042-.136l-.001-.045v-.855q0-.076-.082-.076-.193 0-.263.028-.05.02-.068.048-.016.026-.045.13l-.008.028q-.01.04-.033.04-.032 0-.03-.03.001-.028.01-.076l.01-.084.012-.085.007-.059q.004-.038.04-.038l.033.002q.037.003.107.003l.196.002.234.003q.226 0 .479-.012l.065-.002q.052 0 .055.044l.005.07q.001.016.01.077.007.051.007.082 0 .032-.026.032-.022 0-.03-.037-.02-.09-.078-.129-.057-.04-.166-.04-.146 0-.183.024-.035.022-.035.112zM14.965 22.307q.3 0 .485.175.185.174.185.458 0 .31-.19.524-.186.21-.513.21-.311 0-.498-.182-.187-.183-.187-.488 0-.131.047-.26.048-.13.128-.218.094-.103.237-.16.144-.06.306-.06zm-.07.072q-.194 0-.302.143-.11.144-.11.4 0 .302.137.492.137.188.356.188.197 0 .315-.155.119-.157.119-.42 0-.15-.055-.294t-.147-.229q-.132-.125-.313-.125zM16.913 23.132v.284l.005.065q.016.109.192.119.031.002.031.027 0 .027-.043.027l-.05-.002-.137-.012q-.037-.004-.113-.004-.18 0-.24.01-.039.008-.057.008-.022 0-.022-.032 0-.018.027-.021.108-.018.145-.07.039-.052.039-.18v-.185q0-.064-.043-.133-.05-.083-.11-.199l-.146-.275q-.088-.166-.205-.177-.036-.003-.036-.027 0-.03.027-.03.024 0 .075.006.104.011.189.011.078 0 .158-.008.06-.006.08-.006.04 0 .04.024 0 .02-.032.027-.074.014-.074.064 0 .04.07.177l.075.147.057.111q.033.068.063.068.031 0 .081-.098l.065-.118q.106-.19.106-.239 0-.04-.048-.076-.047-.035-.107-.041-.031-.004-.031-.023 0-.03.025-.03.027 0 .049.003l.063.009q.038.004.097.004l.07-.002.08-.005q.032-.002.077-.002.026 0 .026.022 0 .02-.035.028-.072.017-.117.064-.045.048-.113.18-.122.235-.224.396-.02.03-.025.048-.004.019-.004.066zM18.632 22.308q.18 0 .314.077l.064.036q.019.012.034.012.02 0 .03-.016l.02-.03q.004-.007.017-.007.03 0 .03.062v.158l.008.073.01.044q.005.032.005.057 0 .036-.027.036-.015 0-.02-.023-.008-.037-.054-.112-.045-.076-.086-.12-.168-.181-.373-.181-.182 0-.295.15-.114.15-.114.388 0 .312.186.498.14.139.304.139.097 0 .206-.047.109-.047.171-.116l.063-.068q.014-.016.026-.017.018 0 .018.021 0 .04-.076.126-.199.226-.491.226-.283 0-.46-.181-.177-.181-.177-.471 0-.159.067-.311.066-.152.177-.247.182-.156.424-.156zM20.301 22.321l.022.003q.017.003.076.006l.102.005.094-.004q.049-.004.085-.009l.032-.002q.026 0 .026.025 0 .02-.024.023l-.037.007q-.075.013-.075.16l.001.085-.002.118q0 .278-.028.449-.027.17-.087.262-.146.225-.493.225-.245 0-.381-.093-.184-.126-.184-.489l.01-.372-.002-.176q0-.065-.014-.092-.012-.027-.053-.046-.047-.022-.106-.031-.037-.006-.037-.029 0-.025.033-.025l.04.003q.121.012.188.012.094 0 .209-.011.046-.004.066-.004.05 0 .05.028 0 .015-.008.021-.008.006-.037.012-.058.011-.078.044-.02.032-.025.125l-.016.243.002.17q0 .233.024.332.025.099.102.169.117.107.299.107.185 0 .3-.11.077-.074.109-.217.032-.142.032-.409v-.078l-.005-.197q-.006-.09-.056-.139-.05-.05-.135-.05-.038 0-.038-.028 0-.022.019-.023zM21.252 23.347q0 .18.043.203.024.012.094.012.328 0 .464-.192.042-.06.052-.06.018 0 .018.04 0 .123-.08.219-.07.085-.192.085-.025 0-.091-.005l-.116-.007-.105-.005q-.052-.003-.12-.003-.112 0-.24.016-.04.005-.053.005-.028 0-.028-.026 0-.017.025-.024.061-.017.084-.066.025-.05.025-.163v-.805q0-.154-.128-.174l-.058-.01q-.037-.005-.037-.028 0-.03.03-.03.01 0 .027.004.014 0 .038.004l.04.002q.06.006.089.006.046 0 .147-.011.075-.008.153-.008.057 0 .057.027 0 .023-.04.025-.098.007-.098.134zM22.534 22.565v.725q0 .162.047.23t.166.076q.035.003.035.033 0 .023-.03.023l-.024-.001-.072-.003-.12-.008h-.039q-.056 0-.1.002l-.213.012q-.033.004-.046.004-.03 0-.029-.025.001-.02.01-.027.01-.006.038-.008.075-.005.115-.054.042-.05.042-.136l-.001-.045v-.855q0-.076-.082-.076-.193 0-.263.028-.05.02-.068.048-.016.026-.045.13l-.008.028q-.01.04-.033.04-.032 0-.03-.03.001-.028.01-.076l.01-.084.012-.085.007-.059q.004-.038.04-.038l.033.002q.037.003.107.003l.196.002.234.003q.226 0 .479-.012l.065-.002q.052 0 .055.044l.005.07q.001.016.01.077.007.051.007.082 0 .032-.026.032-.022 0-.03-.037-.02-.09-.078-.129-.057-.04-.166-.04-.146 0-.183.024-.035.022-.035.112zM24.13 22.321l.022.003q.017.003.076.006l.102.005.095-.004q.048-.004.084-.009l.032-.002q.026 0 .026.025 0 .02-.024.023l-.037.007q-.075.013-.075.16l.001.085-.002.118q0 .278-.028.449-.027.17-.087.262-.146.225-.493.225-.245 0-.381-.093-.184-.126-.184-.489l.01-.372-.002-.176q0-.065-.014-.092-.012-.027-.053-.046-.047-.022-.106-.031-.037-.006-.037-.029 0-.025.033-.025l.04.003q.121.012.188.012.094 0 .209-.011.046-.004.066-.004.05 0 .05.028 0 .015-.008.021-.008.006-.037.012-.058.011-.079.044-.02.032-.024.125l-.016.243.002.17q0 .233.024.332.025.099.102.169.117.107.299.107.185 0 .3-.11.077-.074.109-.217.032-.142.032-.409v-.078l-.005-.197q-.006-.09-.056-.139-.05-.05-.135-.05-.038 0-.038-.028 0-.022.019-.023zM25.08 23.273q0 .183.035.249.033.064.132.074.04.004.04.03 0 .028-.032.028l-.04-.003q-.082-.007-.16-.007-.064 0-.114.004l-.08.007-.065.006-.038.003q-.034 0-.034-.026 0-.021.02-.027.064-.02.09-.054.025-.034.025-.105v-.826q0-.115-.028-.155-.048-.064-.154-.078-.04-.006-.04-.032 0-.027.027-.027l.035.002q.074.008.162.008.097 0 .236-.01.163-.013.224-.013.183 0 .303.1t.12.25q0 .096-.053.174-.053.078-.146.118-.02.008-.019.02.001.01.01.023.01.013.026.045l.086.152.099.176q.051.09.09.124.04.035.095.035.022 0 .041-.004.012-.003.021-.003.018 0 .018.022 0 .028-.08.064-.077.036-.138.036-.099 0-.183-.098-.083-.097-.217-.367-.052-.107-.086-.135-.033-.03-.11-.03h-.06l-.042.009q-.015.007-.015.046zm0-.753v.333q0 .062.016.078.017.017.076.017.172 0 .212-.006.041-.007.077-.04.07-.063.07-.175 0-.145-.095-.24-.094-.095-.24-.095-.066 0-.091.028-.024.027-.024.1z"/><path d="m26.723 22.44.437 1.006q.033.076.077.113.045.038.115.05.017.003.017.027 0 .026-.022.025-.012 0-.036-.006-.074-.016-.24-.016-.165 0-.224.014-.015.004-.025.004-.027 0-.027-.027 0-.013.021-.02.046-.013.076-.048t.03-.073q0-.054-.083-.237-.026-.056-.058-.064-.03-.008-.221-.008h-.13l-.087.015q-.036.017-.081.127l-.03.074q-.013.032-.013.065 0 .121.169.14.036.005.035.028-.002.025-.034.025-.017 0-.05-.005-.063-.013-.113-.013-.045 0-.146.01-.075.007-.093.007-.027 0-.027-.023 0-.019.027-.029.052-.016.082-.06.032-.044.094-.184l.262-.607.045-.099.09-.184.045-.09v.003l.016-.036q.015-.037.026-.037.015 0 .053.081zm.036.602-.126-.294q-.045-.106-.064-.106-.012 0-.043.068l-.018.04-.113.258-.01.024q-.007.014-.007.025 0 .032.07.032h.284q.037 0 .037-.02 0-.005-.005-.016zM28.291 22.545v.731q0 .183.024.242.03.07.134.08l.041.003q.026.002.026.028 0 .026-.036.026l-.028-.002q-.03-.002-.064-.002l-.149-.006h-.037q-.068 0-.187.014-.038.005-.06.005-.031 0-.032-.023-.001-.022.024-.028.074-.017.098-.07.025-.053.025-.196v-.741q0-.11-.042-.162-.042-.05-.14-.061-.036-.005-.036-.03 0-.028.041-.028l.045.003q.106.006.246.006.066 0 .11-.002l.106-.007q.054-.004.098-.004.273 0 .398.115.111.103.111.25 0 .159-.117.269-.117.11-.288.11-.092 0-.162-.02T28.37 23q0-.026.024-.026.006 0 .016.003.053.015.102.015.115 0 .19-.075.074-.076.074-.194 0-.146-.086-.238-.086-.093-.221-.093-.105 0-.142.032-.035.03-.035.121zM29.636 22.44l.437 1.006q.033.076.077.113.045.038.115.05.017.003.017.027 0 .026-.022.025-.012 0-.036-.006-.075-.016-.24-.016-.165 0-.224.014-.015.004-.025.004-.027 0-.027-.027 0-.013.021-.02.046-.013.076-.048t.03-.073q0-.054-.083-.237-.026-.056-.058-.064-.03-.008-.22-.008h-.132l-.086.015q-.036.017-.081.127l-.03.074q-.014.032-.014.065 0 .121.17.14.036.005.035.028-.002.025-.034.025-.017 0-.05-.005-.063-.013-.113-.013-.045 0-.146.01-.075.007-.093.007-.027 0-.027-.023 0-.019.027-.029.052-.016.082-.06.032-.044.094-.184l.262-.607.045-.099.09-.184.045-.09v.003l.016-.036q.015-.037.026-.037.015 0 .053.081zm.036.602-.126-.294q-.045-.106-.064-.106-.012 0-.043.068l-.018.04-.113.258-.01.024q-.007.014-.007.025 0 .032.07.032h.284q.037 0 .037-.02 0-.005-.005-.016zM30.711 23.273q0 .183.034.249.034.064.133.074.04.004.04.03 0 .028-.032.028l-.04-.003q-.083-.007-.16-.007-.064 0-.114.004l-.08.007-.065.006-.038.003q-.034 0-.034-.026 0-.021.019-.027.065-.02.09-.054.025-.034.025-.105v-.091l.001-.038v-.697q0-.115-.029-.155-.047-.064-.154-.078-.04-.006-.04-.032 0-.027.028-.027l.034.002q.074.008.163.008.097 0 .236-.01.162-.013.224-.013.183 0 .303.1t.12.25q0 .096-.054.174-.052.078-.146.118-.019.008-.018.02 0 .01.01.023.009.013.026.045l.086.152.099.176q.05.09.09.124.04.035.094.035.023 0 .042-.004.011-.003.021-.003.017 0 .017.022 0 .028-.079.064-.078.036-.138.036-.1 0-.183-.098-.084-.097-.217-.367-.052-.107-.086-.135-.034-.03-.11-.03h-.06l-.043.009q-.014.007-.014.046zm0-.753v.333q0 .062.016.078.016.017.076.017.171 0 .212-.006.04-.007.077-.04.07-.063.07-.175 0-.145-.095-.24t-.241-.095q-.066 0-.09.028-.025.027-.025.1z"/><path d="m32.353 22.44.438 1.006q.033.076.077.113.044.038.115.05.017.003.017.027 0 .026-.022.025-.013 0-.037-.006-.074-.016-.239-.016-.165 0-.225.014-.014.004-.025.004-.027 0-.027-.027 0-.013.022-.02.046-.013.076-.048t.03-.073q0-.054-.083-.237-.026-.056-.058-.064-.03-.008-.221-.008h-.131l-.087.015q-.035.017-.08.127l-.03.074q-.014.032-.014.065 0 .121.17.14.036.005.035.028-.002.025-.034.025-.018 0-.05-.005-.063-.013-.113-.013-.045 0-.146.01-.075.007-.094.007-.027 0-.027-.023 0-.019.027-.029.052-.016.083-.06.032-.044.093-.184l.263-.607.044-.099.09-.184.046-.09v.003l.015-.036q.016-.037.026-.037.016 0 .053.081zm.037.602-.126-.294q-.046-.106-.065-.106-.011 0-.042.068l-.018.04-.113.258-.01.024q-.008.014-.008.025 0 .032.07.032h.284q.037 0 .037-.02 0-.005-.005-.016zM33.922 22.554v.209q0 .09.012.114.014.024.064.024l.029-.001.042-.001h.082q.095 0 .147-.105l.022-.047q.009-.018.029-.019.021 0 .021.026l-.003.043-.002.042q0 .03.01.144.005.075.005.13l.001.049q0 .013-.003.018-.004.006-.015.007-.024.001-.03-.037-.013-.082-.058-.124-.025-.023-.061-.03-.036-.007-.135-.007h-.066q-.046 0-.063.015-.016.013-.022.056-.006.048-.006.152v.086q0 .136.021.196.016.043.038.058.023.016.069.016.39 0 .51-.238.008-.012.012-.012.01-.002.018.006.009.008.009.02 0 .095-.051.183-.043.075-.106.108-.064.032-.169.032-.061 0-.136-.008l-.112-.01q-.061-.006-.166-.006-.07 0-.214.009l-.057.002q-.023 0-.025-.02 0-.018.021-.027.055-.02.075-.044.02-.024.031-.085.01-.05.01-.138v-.764q0-.108-.035-.146-.034-.039-.145-.054-.026-.004-.026-.028 0-.022.032-.022l.029.002h.047l.097.005.365.003q.314 0 .388-.008l.013-.001q.028 0 .028.032 0 .022.006.078.008.084.008.12 0 .074-.038.076-.018 0-.018-.042 0-.096-.07-.138-.07-.043-.225-.043h-.118l-.065.007q-.05.016-.05.098zM35.082 23.347q0 .18.044.203.024.012.094.012.327 0 .464-.192.041-.06.052-.06.017 0 .017.04 0 .123-.08.219-.07.085-.191.085-.025 0-.092-.005l-.115-.007-.105-.005q-.053-.003-.12-.003-.112 0-.241.016-.04.005-.053.005-.028 0-.028-.026 0-.017.025-.024.062-.017.085-.066.024-.05.024-.163v-.805q0-.154-.128-.174l-.058-.01q-.036-.005-.036-.028 0-.03.029-.03.01 0 .027.004.014 0 .038.004l.041.002q.059.006.088.006.046 0 .147-.011.075-.008.153-.008.058 0 .058.027 0 .023-.042.025-.097.007-.097.134zM36.468 22.587q0-.093-.05-.143-.052-.05-.145-.05-.03 0-.03-.025 0-.017.012-.022.013-.006.055-.006l.147.002q.05 0 .09-.002l.166-.013q.142-.014.226-.014.326 0 .522.168.197.166.197.444 0 .357-.264.569-.195.155-.438.155-.04 0-.163-.008-.069-.004-.142-.004-.171 0-.228.01-.044.007-.06.007-.022 0-.022-.027 0-.02.024-.025.06-.011.081-.049.022-.037.022-.129zm.221-.052v.845l.012.088q.032.111.238.111.223 0 .354-.154.13-.155.13-.417 0-.276-.157-.45-.157-.172-.406-.172-.102 0-.14.027-.03.02-.03.122zM38.185 22.554v.209q0 .09.012.114.014.024.064.024l.029-.001.042-.001h.082q.095 0 .147-.105l.022-.047q.01-.018.03-.019.02 0 .02.026l-.003.043-.002.042q0 .03.01.144.005.075.005.13l.001.049q0 .013-.003.018-.004.006-.015.007-.024.001-.03-.037-.012-.082-.058-.124-.025-.023-.061-.03-.036-.007-.135-.007h-.065q-.047 0-.064.015-.016.013-.022.056-.006.048-.006.152v.086q0 .136.021.196.017.043.039.058.022.016.068.016.39 0 .511-.238.007-.012.012-.012.01-.002.017.006.009.008.009.02 0 .095-.051.183-.043.075-.106.108-.063.032-.168.032-.062 0-.137-.008l-.112-.01q-.061-.006-.166-.006-.07 0-.214.009l-.057.002q-.023 0-.025-.02 0-.018.022-.027.054-.02.074-.044.02-.024.031-.085.011-.05.011-.138v-.764q0-.108-.036-.146-.034-.039-.145-.054-.026-.004-.026-.028 0-.022.032-.022l.029.002h.047l.097.005.365.003q.315 0 .388-.008l.013-.001q.028 0 .028.032 0 .022.006.078.008.084.008.12 0 .074-.037.076-.019 0-.019-.042 0-.096-.07-.138-.07-.043-.225-.043h-.117l-.066.007q-.049.016-.049.098zM39.326 22.308q.09 0 .177.034l.065.027q.043.018.061.018.014 0 .028-.007l.037-.018q.008-.004.015-.004.02 0 .02.032l-.002.077q0 .019.002.035l.013.094.01.088.002.02q0 .04-.024.04-.018 0-.025-.036-.028-.135-.14-.233-.113-.098-.24-.098-.086 0-.15.059-.065.058-.065.138 0 .074.057.128.036.035.228.113.228.093.302.183.088.108.088.26 0 .167-.122.292-.12.124-.284.124-.066 0-.21-.045-.068-.023-.1-.03-.044-.008-.051-.016-.007-.008-.012-.05-.005-.045-.029-.13-.036-.132-.036-.168 0-.046.03-.046.013 0 .019.023.047.165.163.278.117.113.242.113.097 0 .173-.075.077-.075.077-.17 0-.077-.04-.126-.04-.05-.138-.093l-.146-.065q-.207-.092-.281-.174-.074-.083-.074-.22 0-.159.103-.265.104-.107.258-.107zM40.559 22.44l.438 1.006q.032.076.077.113.044.038.114.05.018.003.018.027 0 .026-.023.025-.012 0-.036-.006-.074-.016-.239-.016-.165 0-.225.014-.014.004-.025.004-.027 0-.027-.027 0-.013.021-.02.046-.013.076-.048.031-.035.031-.073 0-.054-.084-.237-.026-.056-.057-.064-.031-.008-.222-.008h-.13l-.087.015q-.036.017-.081.127l-.03.074q-.013.032-.013.065 0 .121.17.14.036.005.035.028-.002.025-.035.025-.017 0-.049-.005-.063-.013-.114-.013-.045 0-.146.01-.075.007-.093.007-.027 0-.027-.023 0-.019.027-.029.052-.016.083-.06.031-.044.093-.184l.263-.607.044-.099.09-.184.046-.09v.003l.015-.036q.015-.037.026-.037.015 0 .053.081zm.036.602-.126-.294q-.045-.106-.064-.106-.012 0-.042.068l-.019.04-.112.258-.01.024q-.008.014-.008.025 0 .032.07.032h.284q.037 0 .037-.02 0-.005-.005-.016zM41.635 23.273q0 .183.033.249.034.064.133.074.04.004.04.03 0 .028-.032.028l-.04-.003q-.082-.007-.16-.007-.064 0-.114.004l-.08.007-.065.006-.038.003q-.034 0-.034-.026 0-.021.019-.027.065-.02.09-.054.025-.034.025-.105v-.091l.001-.038v-.697q0-.115-.028-.155-.048-.064-.154-.078-.04-.006-.04-.032 0-.027.027-.027l.035.002q.074.008.162.008.097 0 .236-.01.163-.013.224-.013.183 0 .303.1t.12.25q0 .096-.053.174-.053.078-.146.118-.02.008-.019.02.001.01.01.023.01.013.026.045l.086.152.1.176q.05.09.09.124.04.035.094.035.022 0 .041-.004.012-.003.021-.003.018 0 .018.022 0 .028-.08.064-.077.036-.138.036-.099 0-.183-.098-.083-.097-.217-.367-.052-.107-.086-.135-.033-.03-.11-.03h-.06l-.042.009q-.015.007-.015.046zm0-.753v.333q0 .062.015.078.017.017.076.017.171 0 .212-.006.041-.007.077-.04.07-.063.07-.175 0-.145-.095-.24-.094-.095-.24-.095-.066 0-.091.028-.024.027-.024.1zM42.995 23.273q0 .183.034.249.034.064.133.074.04.004.04.03 0 .028-.032.028l-.04-.003q-.083-.007-.16-.007-.064 0-.114.004l-.081.007-.064.006-.038.003q-.035 0-.035-.026 0-.021.02-.027.065-.02.09-.054.025-.034.025-.105v-.091l.001-.038v-.697q0-.115-.029-.155-.047-.064-.154-.078-.04-.006-.04-.032 0-.027.028-.027l.034.002q.074.008.163.008.097 0 .236-.01.162-.013.224-.013.183 0 .303.1t.12.25q0 .096-.054.174-.053.078-.146.118-.02.008-.018.02 0 .01.01.023.009.013.026.045l.085.152.1.176q.05.09.09.124.04.035.094.035.022 0 .042-.004.011-.003.02-.003.018 0 .018.022 0 .028-.079.064-.078.036-.138.036-.1 0-.183-.098-.084-.097-.218-.367-.052-.107-.085-.135-.034-.03-.11-.03h-.06l-.043.009q-.014.007-.014.046zm0-.753v.333q0 .062.016.078.016.017.076.017.171 0 .212-.006.04-.007.077-.04.07-.063.07-.175 0-.145-.095-.24t-.241-.095q-.066 0-.09.028-.025.027-.025.1zM44.631 22.307q.3 0 .485.175.185.174.185.458 0 .31-.19.524-.186.21-.512.21-.312 0-.499-.182-.187-.183-.187-.488 0-.131.048-.26.047-.13.128-.218.093-.103.236-.16.145-.06.306-.06zm-.07.072q-.193 0-.302.143-.109.144-.109.4 0 .302.137.492.136.188.355.188.197 0 .316-.155.118-.157.118-.42 0-.15-.055-.294t-.146-.229q-.133-.125-.314-.125zM45.828 23.347q0 .18.043.203.024.012.094.012.327 0 .464-.192.041-.06.052-.06.017 0 .017.04 0 .123-.08.219-.07.085-.191.085-.025 0-.092-.005l-.115-.007-.105-.005q-.053-.003-.12-.003-.112 0-.24.016-.04.005-.054.005-.028 0-.028-.026 0-.017.025-.024.062-.017.085-.066.024-.05.024-.163v-.805q0-.154-.128-.174l-.057-.01q-.037-.005-.037-.028 0-.03.029-.03.01 0 .028.004.013 0 .037.004l.042.002q.058.006.087.006.046 0 .147-.011.076-.008.153-.008.058 0 .058.027 0 .023-.041.025-.097.007-.097.134zM46.941 23.347q0 .18.043.203.024.012.095.012.327 0 .463-.192.042-.06.052-.06.018 0 .018.04 0 .123-.08.219-.07.085-.192.085-.025 0-.091-.005l-.116-.007-.104-.005q-.053-.003-.12-.003-.112 0-.241.016-.04.005-.053.005-.028 0-.028-.026 0-.017.025-.024.061-.017.085-.066.024-.05.024-.163v-.805q0-.154-.128-.174l-.058-.01q-.037-.005-.037-.028 0-.03.03-.03.01 0 .027.004.014 0 .038.004l.041.002q.059.006.088.006.046 0 .147-.011.075-.008.153-.008.058 0 .058.027 0 .023-.042.025-.097.007-.097.134zM48.398 22.307q.3 0 .485.175.185.174.185.458 0 .31-.19.524-.187.21-.513.21-.312 0-.498-.182-.187-.183-.187-.488 0-.131.047-.26.047-.13.128-.218.094-.103.237-.16.144-.06.306-.06zm-.07.072q-.194 0-.303.143-.108.144-.108.4 0 .302.136.492.137.188.355.188.198 0 .316-.155.118-.157.118-.42 0-.15-.054-.294-.055-.144-.147-.229-.133-.125-.313-.125zM50.643 22.992h-.456q-.068 0-.085.018-.015.018-.015.094v.24q0 .136.044.197.044.06.145.06.033 0 .033.025 0 .03-.05.03-.017 0-.068-.006-.114-.014-.21-.014-.059 0-.158.01-.059.007-.074.007-.03 0-.03-.031 0-.02.023-.023.066-.011.094-.06.029-.05.029-.15V22.536q0-.07-.038-.103-.037-.034-.14-.054-.027-.006-.027-.028 0-.028.03-.028.018 0 .064.007.078.011.183.011.035 0 .152-.012.069-.007.105-.007.034 0 .034.026 0 .021-.028.026-.113.02-.113.143v.248q0 .098.013.115.015.017.094.017h.45q.058 0 .07-.023.014-.024.014-.131v-.207q0-.123-.136-.148l-.044-.01q-.027-.004-.027-.027 0-.028.03-.028.018 0 .064.007.08.011.184.011.037 0 .152-.012.07-.007.105-.007.035 0 .035.026 0 .021-.028.026-.114.02-.114.143v.827q0 .137.043.198.045.06.144.06.035 0 .035.025 0 .03-.05.03-.017 0-.067-.006-.115-.014-.209-.014-.06 0-.16.01-.058.007-.074.007-.03 0-.03-.031 0-.02.024-.023.065-.011.093-.06.029-.05.029-.15v-.263q0-.095-.012-.114-.012-.02-.072-.02zM52.266 22.321l.023.003q.016.003.076.006l.102.005.094-.004q.048-.004.084-.009l.032-.002q.026 0 .026.025 0 .02-.024.023l-.036.007q-.076.013-.076.16l.001.085-.002.118q0 .278-.027.449-.027.17-.088.262-.145.225-.493.225-.245 0-.38-.093-.185-.126-.185-.489l.011-.372-.003-.176q0-.065-.014-.092-.012-.027-.052-.046-.048-.022-.106-.031-.038-.006-.038-.029 0-.025.033-.025l.04.003q.122.012.188.012.094 0 .209-.011.046-.004.066-.004.05 0 .05.028 0 .015-.008.021-.008.006-.036.012-.059.011-.08.044-.02.032-.024.125l-.016.243.002.17q0 .233.024.332.025.099.102.169.117.107.299.107.186 0 .3-.11.077-.074.109-.217.032-.142.032-.409v-.078l-.005-.197q-.006-.09-.055-.139-.05-.05-.136-.05-.037 0-.037-.028 0-.022.018-.023zM53.192 22.39l.395.862q.026.057.043.056.017-.001.036-.04l.363-.773q.051-.11.074-.137.022-.028.057-.028l.043.003q.027.003.057.003.04 0 .097-.007l.045-.003q.033 0 .033.027 0 .022-.026.024-.09.007-.127.06-.035.055-.035.183v.065l.024.599v.04q0 .132.047.197.047.063.154.075.027.004.027.028 0 .026-.066.026-.019 0-.061-.005-.118-.013-.167-.013-.1 0-.168.01-.064.01-.087.01-.024 0-.024-.024 0-.019.028-.026.055-.016.077-.05.023-.033.023-.1v-.045l-.03-.64q-.001-.025-.013-.025-.014 0-.04.053l-.361.768-.014.029q-.028.06-.046.06-.021.002-.071-.105l-.05-.1-.308-.688-.007-.014q-.004-.007-.012-.007-.015 0-.015.04l-.001.03-.013.486v.039l.009.09q.026.142.15.174.044.01.044.033 0 .025-.034.025-.026 0-.061-.005l-.069-.01q-.026-.004-.075-.004-.087 0-.136.01-.032.007-.049.007-.03 0-.03-.025 0-.018.024-.025.074-.025.108-.089.034-.065.034-.178l.026-.633.003-.064q0-.116-.057-.181-.055-.067-.154-.067-.036 0-.036-.027t.041-.027h.022l.056.004.04.001q.045 0 .088-.006.065-.007.085-.007.063 0 .09.06z"/><path d="m55.24 22.44.438 1.006q.033.076.077.113.044.038.114.05.018.003.018.027 0 .026-.022.025-.013 0-.037-.006-.074-.016-.239-.016-.165 0-.225.014-.014.004-.025.004-.027 0-.027-.027 0-.013.021-.02.047-.013.076-.048.031-.035.031-.073 0-.054-.083-.237-.026-.056-.058-.064-.031-.008-.222-.008h-.13l-.087.015q-.036.017-.08.127l-.03.074q-.014.032-.014.065 0 .121.17.14.036.005.035.028-.002.025-.035.025-.017 0-.049-.005-.063-.013-.113-.013-.046 0-.147.01-.075.007-.093.007-.027 0-.027-.023 0-.019.027-.029.052-.016.083-.06.032-.044.093-.184l.263-.607.044-.099.09-.184.046-.09v.003l.015-.036q.016-.037.026-.037.016 0 .053.081zm.037.602-.126-.294q-.046-.106-.065-.106-.011 0-.042.068l-.019.04-.112.258-.01.024q-.008.014-.008.025 0 .032.07.032h.284q.037 0 .037-.02 0-.005-.005-.016zM56.43 22.55l.51.572.033.037q.066.073.088.073.02 0 .022-.059.009-.213.009-.405 0-.226-.046-.306-.046-.08-.18-.09-.031-.002-.031-.022 0-.025.028-.025.034 0 .111.01.05.005.083.005.066 0 .21-.018l.029-.002q.03 0 .03.027 0 .024-.03.029-.124.023-.124.22v.048l-.014.601-.004.083v.18l.004.12q0 .027-.02.026-.016 0-.035-.02l-.876-.974q-.023-.025-.032-.025-.023 0-.023.043l-.001.028v.374q0 .3.03.4.031.108.187.122.03.003.03.025 0 .028-.03.028l-.038-.003q-.08-.014-.18-.014-.096 0-.172.015-.034.005-.05.005-.025 0-.025-.023 0-.019.027-.027.07-.02.102-.082.033-.064.033-.182l.007-.23v-.417q0-.297-.218-.312-.03-.002-.03-.024 0-.027.033-.027l.066.003.04-.001q.075 0 .161-.01l.053-.002q.03 0 .047.013t.073.08l.067.077.047.056zM58.142 22.307q.3 0 .485.175.185.174.185.458 0 .31-.19.524-.186.21-.512.21-.312 0-.499-.182-.187-.183-.187-.488 0-.131.048-.26.047-.13.128-.218.093-.103.236-.16.145-.06.306-.06zm-.07.072q-.193 0-.302.143-.109.144-.109.4 0 .302.137.492.136.188.355.188.197 0 .316-.155.118-.157.118-.42 0-.15-.055-.294t-.146-.229q-.133-.125-.314-.125z"/></g><path fill-rule="evenodd" fill="#fff" d="M119.215 80.018h10.07v.497h-10.07zM138.652 80.018h22.991v.497h-22.99Zm0 0" style="fill:#000;stroke-width:.352778" transform="translate(-102.863 -62.378)"/></g></svg>